<?xml version="1.0" encoding="UTF-8"?>
<svg id="Layer_1" data-name="Layer 1" xmlns="http://www.w3.org/2000/svg" viewBox="0 0 600 563.78">
  <defs>
    <style>
      .cls-1 {
        fill: #f4f6f9;
      }

      .cls-2 {
        fill: #9ed5f0;
      }

      .cls-3 {
        fill: #fff;
      }

      .cls-4 {
        fill: #ffe945;
      }

      .cls-5 {
        fill: #feaabc;
      }
    </style>
  </defs>
  <path class="cls-1" d="M136.21,440.23c43.02-118.64-141.54-128.33-29.08-213.52,18.54-13.09,39.75-26.66,45.69-48.47,5.57-20.6-4.12-42.05-4.24-63.5C164.69-1.48,303.68,24.45,378.82,70.86c30.42,15.27,64.71,35.87,68.23,69.68,1.33,13.21-2.42,26.9,1.94,39.51,23.51,46.53,95.01,24.96,106.88,110.88,6.66,95.61-88.1,84.1-111.49,143.96"/>
  <path class="cls-3" d="M471.4,418.78c-26.54-35.63-62.29-68.95-85.92-85.43-11.88-8.36-23.87-14.54-35.75-19.15-5.82-16.72-11.27-33.08-16.72-51.14,5.45-.36,10.79-2.55,14.54-6.42,14.54-15.51.48-38.41-17.45-37.08,2.67-20.72,7.03-41.57-4.97-59.87-49.2-54.29-103.25,41.93-137.66,67.86,0,0,30.05,11.75,44.84,17.45,0,0-2.67,54.78-3.51,79.01-30.42,16.72-55.62,42.42-71.86,69.8H14.9c-8.97,0-15.27,10.3-12.48,20.36l32.96,119.24c1.82,6.42,6.79,10.78,12.48,10.78h5.33c3.27,10.18,12.85,17.69,24.12,17.69h201.53c14.42.12,25.45-11.88,25.45-25.93,9.09,9.33,61.2,25.93,97.92,25.93,24.24,0,82.4-5.09,90.89-9.69,28.24-15.27,23.63-81.44-21.69-133.42ZM227.22,528.09c0-1.45-.24-2.79-.61-4.24l-8.24-29.69c2.79-.85,5.45-1.58,8.12-2.18,1.33,1.09,3.27,2.06,6.06,2.42,10.79,1.09,22.66-3.27,32.36,3.76,5.7,4.12,8.24,11.15,12.12,16.97,4,5.7,9.57,10.18,15.88,12.97h-65.68ZM304.29,531.6q-.12.12-.24.24c-.12-.24-.12-.36-.24-.61.24,0,.48.12.85.12q-.24.12-.36.24Z"/>
  <path class="cls-4" d="M111.73,213.62l-55.62,16.72c-9.21,2.79-18.78-2.42-21.57-11.63-3.27-14.54-19.51-42.78,3.15-49.81l55.62-16.72c9.21-2.79,18.78,2.42,21.57,11.63,3.27,14.54,19.51,42.78-3.15,49.81Z"/>
  <path d="M30.42,183.68c12.48,7.15,25.21,14.06,38.05,20.48,1.58.85,3.15,1.57,4.73,2.3,1.33.73,2.79,1.57,4.24,1.94,2.3.49,4.73,0,6.42-1.57.97-.97,1.45-2.06,1.94-3.27.73-1.7,1.58-3.39,2.42-5.09,1.58-3.39,3.15-6.67,4.73-10.06,3.51-7.64,7.15-15.15,10.66-22.78.97-2.06-2.18-4-3.15-1.82-5.94,12.6-11.75,25.08-17.69,37.69-.97,1.94-1.7,4.12-4.36,3.51-1.21-.24-2.3-1.09-3.39-1.58-1.58-.73-3.15-1.58-4.73-2.3-6.06-3.03-12.12-6.18-18.18-9.45-6.67-3.64-13.33-7.27-19.87-11.15-2.06-1.09-3.88,2.06-1.82,3.15Z"/>
  <path class="cls-5" d="M276.42,39.35c-.85,52.47-78.89,52.47-79.86,0,.85-52.47,78.89-52.47,79.86,0Z"/>
  <path d="M250.36,29.17c-3.27-5.94-11.63-6.54-16.36-1.94-2.3,2.3-3.15,5.45-2.79,8.48-.97-1.21-2.3-2.18-3.88-2.67-2.42-.73-5.33-.24-7.39,1.21-2.18,1.58-3.76,4-3.64,6.79.12,3.64,2.79,6.3,5.7,8.24,2.18,1.45,4.73,2.42,7.27,3.27,3.51,1.21,7.03,1.94,10.66,2.54,1.21.24,2.3.36,3.51.48.97.12,1.82-.97,1.82-1.82,0-.36-.12-.61-.24-.85.36-4.12,2.91-7.63,4.6-11.27,2.06-3.88,3.03-8.36.73-12.48ZM246,41.17c-1.7,3.39-3.76,6.79-4.48,10.66-2.91-.48-5.94-1.09-8.85-1.82-1.33-.36-2.79-.85-4.12-1.33-.24-.12-.61-.24-.85-.36h-.12c-.12-.12-.36-.12-.48-.24-.49-.24-.97-.48-1.45-.73-.85-.48-1.7-.97-2.54-1.58,0,0-.36-.24-.12-.12.24.24,0,0-.12-.12-.12-.12-.36-.24-.49-.36-.24-.24-.61-.48-.85-.85-.12-.12-.24-.24-.36-.36l-.12-.12c-.12-.24-.36-.48-.48-.85-.12-.12-.12-.24-.24-.36-.12-.24-.24-.48-.24-.85v-1.09.12-.12c0-.24,0-.12,0,0v-.24c0-.24.12-.48.24-.73,0-.12.12-.24.12-.24.12-.24.24-.48.36-.61l.24-.24c.12-.24.36-.36.49-.48l.24-.24c.24-.12.36-.24.61-.36.24-.12.36-.24.61-.36.12,0,.24-.12.36-.12.24-.12.49-.12.73-.24h1.45c.24,0,.49.12.73.12.12,0,.24.12.36.12.24.12.49.24.73.36.12,0,.12.12.24.12,0,0,.12,0,.12.12.24.24.48.36.6.61l.12.12c0,.12.12.24.24.24.24.24.36.61.49.85.12.12.12.24.24.36q0,.12.12.24c.12.36.24.73.36,1.21.24.97,1.33,1.58,2.18,1.21.97-.24,1.57-1.33,1.21-2.18-.12-.36-.24-.73-.36-1.09,1.21.24,2.66-.73,2.18-2.18-.24-.73-.36-1.33-.49-2.06,0-.73,0-1.33.12-1.82.24-1.09.73-2.18,1.45-2.79,1.58-1.7,3.64-2.54,5.94-2.42.97,0,1.94.36,2.91.97.97.61,1.7,1.45,2.3,2.54,1.7,3.15.24,6.67-1.33,9.69Z"/>
  <path d="M221.04,43.72q.12,0,0,0c.12.12.12.12.12.12.12,0,0-.12-.12-.12Z"/>
  <path d="M427.78,127.21c2.3-.36,3.27,3.15.97,3.51-4.85.85-9.82.73-14.66.24-4.97-.48-10.06-1.33-14.91-2.79-4.24-1.33-8.48-3.03-11.88-5.94-2.79-2.42-4.6-5.69-4.12-9.45.73-4.97,4.61-8.97,8.36-12-.12.49-.36.85-.48,1.33-.12-2.67-.97-4.85-2.42-7.03-1.09-1.58-2.3-3.15-2.67-5.09-.36-2.3.61-4.36,2.06-6.18,1.09-1.33,2.3-2.54,3.64-3.76.24-.24.73-.48.97-.85.24-.24.24-1.09.24-1.45.24-.85.48-1.7.73-2.54,1.58-5.21,4.48-10.3,9.33-12.97,10.06-5.45,22.18,1.09,30.3,7.15-.85.73-1.82,1.33-2.67,2.06-.97-5.94.24-12.36,2.67-17.94,1.94-4.6,5.45-9.57,10.79-10.42,1.33-.24,2.67-.12,4,.12,1.57.36,2.42.97,3.39,2.3,1.21,1.82,1.7,4.24,1.7,6.42,0,5.33-1.94,10.42-1.94,15.75-.12,7.76,3.88,13.94,9.57,19.03,1.82,1.58-.85,4.12-2.55,2.54-6.06-5.33-10.3-12-10.66-20.12-.24-5.21,1.33-10.18,1.82-15.27.12-1.7.24-3.64-.36-5.33-.24-.48-.61-.97-.85-1.45-.12-.24-.49-.36.12,0-.24-.12-.61-.12-.97-.24-.85-.24-1.82-.24-2.67,0-4.36.85-7.03,5.7-8.36,9.57-1.58,4.36-2.67,9.57-1.94,14.18.24,1.33-1.21,3.15-2.67,2.06-7.88-5.94-21.81-13.69-30.17-4.24-1.7,1.94-2.91,4.48-3.76,6.91-.61,1.7-.97,3.27-1.33,4.97-.36,1.7-2.42,2.79-3.64,4.12-1.33,1.33-3.03,3.15-2.91,4.97,0,.36.36,1.09.73,1.58.36.73.85,1.33,1.33,2.06,1.21,1.82,2.18,3.76,2.67,5.82.24,1.33.85,3.39-.12,4.48-.85.97-2.06,1.7-2.91,2.67-1.45,1.45-2.91,3.15-3.76,5.09-.61,1.21-.85,2.79-.73,3.76.48,2.79,2.79,4.85,5.33,6.42,3.39,2.06,7.39,3.27,11.27,4.24,7.39,1.94,16.36,3.03,24.11,1.7ZM449.35,137.76c1.58-8.6,3.39-17.21,6.54-25.45,1.58-4.12,3.64-8.24,6.54-11.51,1.21-1.33,2.54-2.67,4.24-3.51.73-.36,1.45-.73,2.18-.97.97-.24,1.94.12,2.79.61,3.88,2.18,4.36,7.64,4.12,11.51-.24,2.54-.61,4.85-1.09,7.51-1.45,7.39-3.51,14.9-6.91,21.57-1.45,2.91-3.39,6.18-6.06,7.88-1.21.73-2.06,1.09-3.39.97-1.09-.12-2.54-.73-3.76-1.7-1.82-1.45-4.36,1.09-2.55,2.54,15.15,12,23.27-18.06,25.45-27.75,1.58-7.27,3.88-16.48-.97-23.02-1.58-2.06-3.64-3.51-6.18-4-2.18-.36-4.48.73-6.3,1.94-3.88,2.54-6.67,6.42-8.85,10.54-5.09,9.82-7.39,20.84-9.45,31.63-.24,2.54,3.27,3.51,3.64,1.21Z"/>
  <path class="cls-2" d="M580.35,343.04l-70.53,11.63c-13.09,2.18-25.57-6.79-27.75-19.87-3.03-20-13.57-50.05,15.27-55.87l70.53-11.63c13.09-2.18,25.57,6.79,27.75,19.87,3.03,19.99,13.57,50.05-15.27,55.86Z"/>
  <path d="M520.97,296.14c2.06,6.42,3.51,12.97,4.85,19.51.73,4.12,1.33,8.24,2.54,12.24.73,2.42,2.06,5.09,4.85,5.58,3.15.48,6.3-1.82,8.73-3.39,6.66-4.48,12.72-9.7,18.9-14.79.73-.61.61-1.94,0-2.54-8.36-8.85-19.39-15.27-31.27-18.06-2.3-.49-3.27,3.03-.97,3.51,11.39,2.67,21.69,8.61,29.69,17.09v-2.54c-5.33,4.36-10.79,8.85-16.36,12.97-1.58,1.21-3.27,2.3-4.97,3.27-.36.12-.61.36-.97.49-.24.12-.12.12-.61.24-.24.12-.49.12-.73.24-.12,0-.24,0-.36.12.36,0,.24,0,0,0-.12,0-.73,0-.49,0s-.24-.12-.36-.12c.48.24,0,0-.12-.12.48.36,0-.12-.24-.24-.24-.24.12.24,0,0-.12-.12-.12-.24-.24-.24-.12-.24-.24-.49-.36-.73l-.24-.48c-.12-.36-.24-.61-.36-.97-1.09-3.64-1.58-7.51-2.3-11.27-1.33-6.91-2.91-13.82-4.97-20.6-.85-2.3-4.36-1.33-3.64.85Z"/>
  <path d="M179.59,141.39c-.61-.85-.12-1.94.61-2.54.85-.61,1.94-.12,2.54.61.12.24.24.48.49.61-.36-.36.12.12.24.24.24.36.48.61.85.85.12.12.36.24.49.36-.12-.12-.24-.24,0,0l.12.12c.24.24.61.36.97.49.12,0,.12.12.24.12.36.12-.49-.12-.12,0,.12,0,.24.12.36.12.24.12.61.12.97.24-.36-.12-.36,0-.12,0h1.09c.12,0,.49,0,.12,0s-.12,0,0,0c.24,0,.49-.12.73-.24.12,0,.24-.12.36-.12h.12c.24-.12-.24.12-.24.12.24-.12.48-.24.73-.36.24-.12.49-.24.61-.36.24-.12-.36.24-.12.12l.12-.12c.12-.12.24-.12.36-.24.12-.12.36-.36.49-.49l.36-.36c.12-.24-.24.36,0,0,.12-.24.24-.48.36-.6.12-.24.24-.49.36-.73.12-.24-.12.24-.12.24,0-.12.12-.12.12-.24s.12-.24.12-.36c.12-.24.12-.49.24-.85,0-.24,0-.61,0,0v-1.58c0-.24.12.49,0,.24v-.12c0-.24-.12-.61-.24-.85,0-.12-.24-.49,0,0-.12-.12-.12-.24-.24-.36-.12-.24-.24-.49-.48-.73l-.12-.12c-.24-.24.24.24.12.12-.12-.12-.24-.24-.24-.36-.24-.24-.48-.49-.73-.73-.12,0-.12-.12-.24-.12,0,0,.36.24.12.12-.12-.12-.36-.24-.49-.36-.36-.24-.73-.36-1.09-.61-.12-.12-.36-.12-.49-.24-.12,0-.24-.12-.24-.12.36.12.12,0,0,0h-.24.24-1.33s.48-.12.12,0c-.24,0-.49.12-.61.12-.24,0-.49.12-.61.24-.36.12.24-.12,0,0-.12,0-.24.12-.36.12-.36.24-.73.36-1.09.61-.36.24.24-.24-.12,0-.12.12-.24.12-.36.24s-.24.24-.36.36c-.12.12-.36.36-.48.48-.24.36.12-.24,0,0-.12.12-.12.24-.24.24-.24.36-.61.85-.61,1.21.12-.36.12-.12,0-.12,0,.12-.12.24-.12.36-.12.24-.12.36-.12.61,0,.12,0,.24-.12.36-.12.49,0-.36,0,0v.49c0,.12.12.61,0,.73,0-.12-.12-.36,0-.12,0,.12,0,.24.12.36.24.97-.24,1.94-1.21,2.18-.85.24-2.06-.36-2.18-1.21-1.21-5.33,3.03-10.54,8.24-11.15.49,0,.97-.12,1.46,0,.73.12,1.33.24,2.06.61.73.36,1.45.73,2.18,1.21,1.45,1.09,2.54,2.42,3.27,4.12,1.09,2.54.48,5.7-1.09,7.88-1.7,2.42-4.24,4-7.15,4.12-3.51.36-6.42-2.06-8.36-4.85ZM565.08,459.01c1.94,2.67,4.73,4.73,8.12,4.48,2.91-.24,5.45-1.82,7.15-4.12,1.58-2.18,2.18-5.21,1.33-7.76-.49-1.45-1.45-2.91-2.67-3.88-.85-.73-1.7-1.33-2.67-1.7-.85-.36-1.82-.48-2.79-.48-4.36,0-8.85,3.15-9.45,7.63-.12.97.24,1.94,1.21,2.18.85.24,2.06-.24,2.18-1.21,0-.36.12-.73.24-1.09q0-.12.12-.24t0,.12c0-.12.24-.36.24-.61.12-.12.12-.24.24-.49,0-.12.12-.12.12-.24.24-.24,0,0,0,.12.12-.36.61-.73.85-.85,0,0,.48-.36.24-.24-.24.24.12-.12.12-.12.12,0,.12-.12.24-.12.36-.24.73-.36.97-.61.12,0,.12-.12.24-.12-.36.12-.24.12-.12,0,.24-.12.36-.12.61-.24.24,0,.36-.12.61-.12h.24c.12,0,.48-.12.12,0-.24.12.12,0,.12,0h1.21c.36,0-.24-.12,0,0h.36c.24,0,.36.12.61.12.12,0,.61.24.36.12-.24-.12.12.12.12.12.12,0,.12.12.24.12.12.12.36.24.48.36.12.12.24.12-.12,0,.12,0,.12.12.24.12.12.12.24.24.36.36.24.24.48.49.73.73l.12.12c.12.12-.24-.36-.12-.12.12.12.12.24.24.36.12.24.24.49.48.73.24.36-.12-.24,0,0,0,.12.12.24.12.36.12.24.12.48.24.85.12.36,0-.48,0,0v1.21c0,.48.12-.36,0,0,0,.12,0,.24-.12.36,0,.24-.12.49-.24.85,0,.12-.12.24-.12.36-.12.24.24-.36,0,0-.12.24-.24.48-.36.73-.12.24-.24.49-.49.73-.12.24.24-.36,0,0-.12.12-.24.24-.24.36-.12.24-.36.36-.48.49q-.12.12-.24.24c-.36.36.24-.12,0,0-.48.24-.85.49-1.33.73-.24.12.48-.12,0,0-.12,0-.24.12-.36.12-.24.12-.49.12-.85.24h-.12c-.24.12.36,0,.12,0h-1.33c-.36,0,.48.12,0,0-.12,0-.24,0-.48-.12-.12,0-.36-.12-.48-.12s-.12,0-.12-.12c-.36-.12,0,.12.12,0-.12,0-.73-.36-.85-.49-.12-.12-.24-.24-.48-.24q-.12-.12.12.12c0-.12-.24-.12-.24-.24-.24-.24-.61-.49-.85-.85-.12-.12-.24-.24-.36-.48-.12-.12-.24-.36,0,0-.12-.12-.12-.24-.24-.36-.61-.73-1.58-1.21-2.54-.61-.85.48-1.33,1.7-.73,2.42ZM485.58,244.15c0-.24-.12-.36-.12-.61.12.49,0,.24,0,.12v-.73c0-.12.12-.49,0,.12v-.36c0-.12.12-.36.12-.49s.36-.73,0-.24c.24-.36.36-.73.61-.97l.12-.12c.12-.12.36-.24,0,0,.12-.12.24-.24.36-.49.12-.12.24-.24.36-.36s.12-.12.24-.24c.36-.36-.24.12,0,0,.24-.24.61-.36.85-.6.12,0,.24-.12.24-.12,0,0-.49.12-.12.12.24-.12.36-.12.6-.24.12,0,.36-.12.49-.12.36-.12-.48,0-.12,0h.97q-.36,0-.24,0h.24c-.12,0-.12-.12-.24-.12,0,0,.12,0,.12.12.12,0,.12.12.24.12.12.12.24.12.48.24.24.12.61.36.85.6.12,0,.12.12.24.12-.48-.36-.24-.12-.12-.12.12.12.24.12.24.24.24.24.36.36.61.61l.12.12c-.36-.49-.24-.24-.12-.12q.12.12.24.24c.12.24.24.49.36.61.12.24-.24-.49-.12-.24,0,0,0,.12.12.12,0,.12.12.24.12.24,0,.12,0,.24.12.36,0,.24,0,.61,0-.12v1.09c0,.36,0-.24,0-.24-.12.12-.12.49-.12.61,0,.24-.12.49-.24.61-.12.24.24-.49.12-.24,0,0,0,.12-.12.12,0,.12-.12.24-.12.24-.12.24-.24.36-.36.61,0,.12-.12.12-.12.24.36-.61.12-.24,0,0-.12.12-.36.36-.49.49-.12.12-.73.61-.12.12-.24.12-.36.24-.61.36-.12.12-.36.24-.61.24-.36.24.36-.12.12,0-.12,0-.24.12-.36.12-.24.12-.36.12-.61.12s-.61,0,.12,0h-1.09c-.12,0-.36-.12.24,0h-.12c-.12,0-.24,0-.36-.12-.12,0-.24-.12-.36-.12,0,0-.12,0-.12-.12-.36-.12.36.24.12.12-.24-.12-.49-.24-.73-.36-.12-.12-.24-.12-.36-.24.61.36.12,0-.12-.12-.24-.24-.49-.49-.73-.73l-.12-.12c-.24-.36.24.24,0,0-.12-.12-.24-.36-.36-.49-.24-.36-.36-.73-.61-1.09-.49-.85-1.7-1.21-2.55-.61-.85.61-1.09,1.58-.61,2.54,1.33,2.67,3.64,4.85,6.79,4.97,2.3.12,4.73-1.09,6.18-2.79,1.58-1.94,2.42-4.48,1.58-6.91-.49-1.33-1.21-2.55-2.3-3.39-.61-.49-1.33-.97-2.06-1.45-.24-.12-.49-.24-.73-.36-.36-.12-.73-.24-1.21-.24h-1.21c-1.94.24-3.88,1.21-5.21,2.67-1.33,1.45-2.18,3.39-2.06,5.45,0,.48.12,1.09.24,1.57.24.97,1.33,1.58,2.18,1.21.97.49,1.58-.48,1.33-1.45ZM2.91,260.15c2.3,1.33,5.09,1.7,7.51.49,1.82-.97,3.15-3.03,3.51-5.09.36-2.3-.12-4.61-1.7-6.3-.85-.85-1.94-1.45-3.15-1.82-.73-.24-1.45-.24-2.18-.36-.97,0-1.82.24-2.79.61-3.64,1.7-5.33,6.91-3.15,10.3.48.85,1.7,1.21,2.54.61.85-.49,1.21-1.58.61-2.55-.12-.12-.12-.24-.24-.36-.12-.24,0,.12,0,.12,0,0-.12-.12-.12-.24s-.12-.36-.12-.48v-.24c0-.24,0,.36,0,.12v-1.21c.12.24-.12.36,0,.12,0-.24.12-.36.12-.61,0-.12.12-.24.12-.49l.12-.24s-.12.36,0,.12c.12-.36.36-.61.48-.85l.12-.24s-.24.36-.12.12c.12-.12.24-.24.36-.36.12-.12.24-.24.36-.36.24-.24-.12.12-.12.12,0,0,.24-.12.24-.24.12-.12.24-.12.36-.24.12,0,.12-.12.24-.12.24-.12-.12.12-.12,0,0,0,.36-.12.48-.12h.24c.36-.12-.36,0,0,0h1.09s-.48-.12-.24,0c.12,0,.24,0,.36.12.24,0,.48.12.73.24.12,0,.24.12.36.12,0,0-.48-.24-.24-.12,0,0,.12,0,.12.12.24.12.36.24.61.36.12,0,.12.12.24.12,0,0-.36-.36-.24-.12l.12.12c.12.12.24.24.36.36,0,0,.24.36,0,0-.24-.24,0,0,.12.12.12.12.24.36.24.48s.24.36,0,0c-.12-.36,0,0,0,.12.12.12.12.36.12.6v.24c.12.36,0-.49,0-.12v1.09c0,.36.12-.36,0-.12v.24c0,.24-.12.36-.12.61,0,.12-.12.36-.24.49.24-.73,0,0-.12.12-.12.12-.12.36-.24.48,0,.12-.12.12-.12.24.36-.48.12-.24,0,0-.12.12-.24.24-.36.36-.12,0-.12.12-.24.12-.12.12.24-.12.24-.12l-.12.12c-.12.12-.36.24-.48.36-.24.12-.48.12.12,0-.12,0-.24.12-.36.12-.24.12-.36.12-.61.12-.24.12.24,0,.24,0h-1.33c.61,0,.12,0,0,0s-.24,0-.36-.12c-.24-.12-.61-.24-.85-.24.61.12,0,0-.12-.12-.12-.12-.36-.12-.48-.24-.85-.49-2.06-.24-2.54.61-.36,1.33-.12,2.42.73,2.91Z"/>
  <path d="M316.29,240.03c5.82-5.7,14.18-8.6,22.3-7.51.97.12,1.82.73,1.82,1.82,0,.85-.85,1.94-1.82,1.82-7.15-.97-14.54,1.45-19.75,6.54-1.58,1.58-4.12-.97-2.55-2.67ZM280.42,264.39l-.12-.12s0,.12.12.12ZM268.78,192.65c.48.85,1.7,1.21,2.55.61.85-.61,1.09-1.57.61-2.54-.85-1.58-1.7-3.15-2.54-4.73-.49-.85-1.7-1.21-2.55-.61-.85.61-1.09,1.58-.61,2.54.85,1.58,1.7,3.15,2.54,4.73ZM267.21,272.27q0,.12,0,0,0,.12,0,0s0,.12,0,0ZM267.21,272.27q0,.12,0,0h0ZM304.9,533.54q.12,0,0,0c.12,0,0,0,0,0ZM288.05,360.73c.97,3.88-.36,8-3.51,10.42-3.64,2.67-9.21,2.3-12.48-.85-3.03-2.79-3.76-7.51-2.3-11.27,1.58-4.36,5.45-7.03,10.06-6.91,1.21,0,1.82,1.09,1.7,2.06.97.24,1.94.61,2.91,1.21,1.82,1.21,3.03,3.15,3.64,5.33ZM281.39,368.73s.24-.12,0,0h0ZM284.66,363.52v-1.21c0-.12-.12-.36-.12-.49-.12-.36-.24-.73-.36-.97,0-.12-.12-.12-.12-.24-.12-.12-.12-.36-.24-.48-.12-.12-.12-.24-.24-.36l-.12-.12c-.24-.24-.48-.61-.85-.85l-.12-.12c-.12-.12-.24-.12-.36-.24-.12-.12-.36-.24-.61-.24q-.12,0-.24-.12c-.36-.12-.73-.24-1.21-.24h-1.7c-.12,0-.73.12-.48,0-.85.12-1.7-.24-2.06-.97-.24.12-.36.24-.61.36h-.12l-.12.12c-.36.24-.61.61-.97.97,0,.12-.12.12-.12.24-.12.24-.24.36-.36.61-.12.12-.24.36-.24.48l-.12.24v.12c-.12.36-.24.85-.36,1.21,0,.24-.12.36-.12.61v2.3c.12.36.12.73.24,1.09.12.24.12.36.24.61,0,.12.12.12.12.24.12.36.36.61.61.97l.12.24c.12.12.24.24.36.49.12.12.24.24.48.36l.12.12h.12c.36.24.73.49,1.09.61.12,0,.24.12.24.12.24.12.49.12.61.24.24.12.49.12.73.12h1.82c.12,0,.24,0,.36-.12.24,0,.36-.12.61-.12s.36-.12.61-.24c.12,0,.12-.12.24-.12.36-.12.61-.36.85-.49.12,0,.24-.12.24-.24.12-.12.24-.24.36-.36s.24-.24.36-.36l.12-.12c.24-.36.36-.61.49-.97,0,0,0-.12.12-.12v-.12c0-.12.12-.36.12-.48.12-.36.12-.61.24-.97v-.24c.36-.36.36-.61.36-.73ZM354.58,395.39c.85,4.6-2.91,7.76-6.79,9.45,1.7,2.54,2.91,5.33,3.03,8.36.12,2.06-.61,4.36-2.3,5.7-1.58,1.33-3.76,1.7-5.7,1.09-4.36-1.33-6.06-5.94-6.3-10.3-1.21.61-2.67.85-4.12.73-4.48-.24-8.97-3.88-8.48-8.73.36-2.91,2.06-5.33,4.97-6.18,1.82-.48,3.64-.36,5.21.49-.73-2.67-.97-5.45.12-8,1.7-3.88,6.67-4.73,9.82-1.94,1.45,1.33,2.06,2.91,2.06,4.48,3.76-.97,7.76.85,8.48,4.85ZM349.49,394.06c-.12,0,0,0,0,0h0ZM337.62,389.69q.12-.12,0,0h0ZM345.01,416.72q.24,0,0,0h0ZM346.58,415.87q-.12.12,0,0h0ZM351.07,396.84v-.61c0-.12-.12-.24-.12-.48l-.12-.24c0-.12-.12-.24-.12-.24-.12-.12-.12-.24-.24-.36.12.12.12.12-.12-.12-.12-.12-.24-.24-.36-.36-.12-.12-.24-.12-.36-.24h-.12c-.12,0-.36-.12-.49-.12h-.97c-.12,0-.36,0-.36.12-.12,0-.36.12-.49.12,0,0-.12,0-.12.12-.12.12-.36.24-.48.24s-.48.36-.48.36c-.12.12-.36.24-.48.36-.24.12-.36.36-.49.61-.73,1.58-1.82,3.03-2.79,4.24-.61.73-1.7.61-2.42.12-.73-.61-.85-1.58-.48-2.3.73-1.45,1.58-3.03,2.79-4.36.12-.12.12-.36.12-.36.12-.24.12-.61.24-.85,0-.12,0-.24.12-.36v-.73c0-.24-.12-.85,0-.36,0-.12-.12-.36-.12-.48s-.12-.24-.12-.48c0,0,0-.12-.12-.12-.12-.12-.24-.36-.24-.49l-.12-.12c-.12-.12-.24-.24-.36-.36s-.36-.24-.48-.24h-.12c-.24,0-.49-.12-.73-.24h-.61c-.12,0-.24.12-.48.12h-.12c-.12.12-.24.12-.36.24,0,0,0,0-.12.12-.12.12-.24.24-.36.36l-.12.12s0-.12.12-.12l-.12.12v-.12.12c-.12.12-.12.24-.24.36,0,0-.12.12-.12.24-.12.24-.12.36-.24.61,0,.12-.12.36-.12.48v2.42c0,.12,0,.36.12.49.12.36.12.61.24.97.24.73.48,1.45.73,2.18.36.97-.36,1.94-1.21,2.18h-.36c-.12.48-.49.85-.85,1.09-.97.48-1.94.12-2.54-.61-.85-1.21-3.03-1.09-4.36-.24-.61.36-.97.85-1.21,1.58-.12.24-.12.48-.12.73-.12.36,0,0,0,.24v.85c0,.24.12.36.12.61l.12.24c.12.36.36.61.49.97,0,.12.12.12.12.24.12.12.24.24.36.36q.24.24.61.49c1.21.85,2.42,1.09,4,.97h.36c.24,0,.48-.12.61-.12q.49-.12.85-.36c.73-.36,1.21-.73,1.82-1.45.97-1.21,3.27-.24,3.15,1.33-.12,1.58-.24,3.64,0,4.85.12.73.24,1.33.48,2.06,0,.12.12.36.24.48.12.24.24.48.36.73.12.24.24.49.49.73,0,.12.12.12.12.12l.12.12c.24.24.48.48.73.73.12.12.24.24.36.24.12.12.36.12.48.24h.12c.12,0,.36.12.49.12h.85c.12,0,.36-.12.48-.12h.12c.12-.12.24-.12.49-.24,0,0,.12,0,.12-.12.12-.12.24-.24.36-.36l.12-.12v-.12c.12-.12.12-.24.24-.48v-.24c0-.12.12-.36.12-.49s.12-.61.12-.48v-1.58c-.49-2.91-1.94-5.33-3.76-7.76-.73-.97.12-2.42,1.09-2.67,1.45-.36,2.67-.85,3.88-1.7.61-.36.6-.48,1.09-.85.12-.12.36-.36.48-.49l.12-.12.12-.12c.12-.24.24-.36.36-.61l.12-.24c.12-.24.12-.61.24-.85-.12,0-.12-.12-.12-.12ZM347.19,412.6c0,.12,0,.24,0,0h0ZM512.36,518.39c-.73,9.94-3.27,20.24-9.57,28.24-2.42,3.03-5.58,5.94-9.21,7.51-3.15,1.45-6.67,2.06-10.06,2.67-11.88,2.18-23.99,3.39-36.11,4.48-12.72,1.09-25.45,2.06-38.29,2.42-13.21.36-26.42-.85-39.39-3.15-13.94-2.42-27.75-6.06-41.2-10.66-5.21-1.82-10.42-3.88-15.39-6.3-3.03-1.45-6.06-3.03-8.73-5.21-1.09,12.97-11.63,23.63-25.21,23.63H77.56c-11.27,0-20.84-7.39-24.12-17.69h-5.33c-5.7,0-10.79-4.36-12.48-10.78L2.67,414.3c-2.79-10.06,3.51-20.36,12.48-20.36h139.85c5.33-9.09,11.51-17.69,18.18-25.81,10.3-12.48,22.18-23.63,35.26-33.08,5.94-4.36,12.24-8.36,18.66-11.88.12-4.48.36-9.09.48-13.57.61-14.06,1.21-28.11,1.94-42.17.36-7.03.61-13.94.97-20.96-3.39-1.33-6.79-2.67-10.18-4-11.15-4.24-22.18-8.6-33.32-12.97-1.57-.61-1.7-2.3-.49-3.27,1.09-.85,2.18-1.7,3.27-2.67,11.88-10.18,21.93-22.42,32.36-33.93,9.09-9.94,18.42-19.99,28.96-28.6,2.18-15.63,29.2-36.96,46.53-24.36,46.54-17.69,82.89,41.08,65.68,79.62-2.55,6.42-5.7,12.6-9.33,18.54,2.3,6.79,1.7,14.66-4,21.69,9.21,13.33,28.84,18.18,43.02,9.21,1.94-1.21,4.85-2.3,6.06-.48-5.82,20.72-30.3,35.14-50.9,39.38.97,2.79,1.94,5.57,2.91,8.36.61.24,1.09.36,1.7.61,16.96,6.91,32.36,16.72,46.65,28.11,14.06,11.27,27.14,23.63,39.63,36.6,12,12.48,23.39,25.69,33.81,39.63,5.09,5.94,9.94,12.24,14.3,18.78,8.73,13.21,15.63,27.75,20.12,42.9,3.88,12.48,6.06,25.69,5.09,38.78ZM232.91,243.18c.73.24,1.33.85,1.33,1.7-.12,2.67-.24,5.33-.36,8-.61,12.72-1.21,25.33-1.7,38.05-.48,12.12-1.09,24.24-1.45,36.36,7.88,2.79,16,4.97,24.24,6.42,32.11,5.7,65.92.85,95.13-13.69-1.7-4.73-3.39-9.45-4.97-14.18-4.73-13.57-9.09-27.27-13.33-40.96h-.12c-4.97,0-9.82-1.46-13.82-4.36-.85-.61-.97-1.7-.36-2.55.61-.85,1.7-.97,2.55-.36,7.63,5.69,19.75,4.6,26.42-2.3,8.12-8.6,6.3-19.39.97-26.18-5.45-6.79-15.51-11.03-25.69-5.09-.85.49-1.94.24-2.42-.61-.48-.85-.24-1.94.61-2.54.97-.61,1.94-1.09,2.91-1.45-1.09-6.06-2.06-12.12-3.03-18.18-35.51.73-53.93-21.33-39.02-54.05-9.21,3.03-17.57,8.73-24.96,14.54-13.33,10.79-24.84,23.51-36.23,36.23-8.97,9.94-17.81,20.48-28.23,28.96.24.12.61.24.85.36,13.45,5.33,27.15,10.66,40.72,15.88ZM214.13,540.57c2.67,0,5.09-1.33,6.91-3.76,2.42-3.27,3.27-7.88,2.18-12.12l-32.96-119.24c-1.33-4.85-4.97-8.12-8.97-8.12H15.27c-2.67,0-5.09,1.33-6.91,3.76-2.42,3.27-3.27,7.88-2.18,12.12l32.96,119.24c1.33,4.85,4.97,8.12,8.97,8.12h166.02ZM211.95,453.92c-.61,0-1.21.12-1.82,0-1.7-.24-2.79-.97-3.51-1.94l11.15,40.48c1.82-.49,3.51-.97,5.33-1.45-.49-.85-.73-1.94-.73-3.03-.24-5.57,5.7-8.6,10.54-8.97,3.39-.24,6.91.48,10.3-.73,1.45-.48,2.67-1.45,2.91-3.03.24-1.09.24-2.18,0-3.27-.85-3.88-5.82-4.73-9.33-5.09-4.85-.48-9.94-.12-14.78-1.09-5.45-1.09-10.54-6.18-10.06-11.88ZM218.86,495.85l7.76,27.99c.36,1.45.61,2.91.61,4.24h61.68c-5.21-2.91-9.94-6.91-13.33-11.88-4.61-6.54-7.27-15.03-15.03-18.54-7.63-3.39-16.36-1.21-24.36-1.33-3.15,0-7.15-.61-10.06-2.55-2.42.73-4.85,1.33-7.27,2.06ZM300.78,534.15v-.24c0-.6-.24-1.09-.61-1.45-.85-.24-1.7-.36-2.55-.61h-70.65c-1.21,6.91-6.3,12.48-12.97,12.48H57.2c3.15,8.24,11.03,14.06,20.24,14.06h201.65c6.06,0,11.63-2.42,15.75-6.91,4.36-4.73,6.42-11.03,5.94-17.33ZM306.59,526.27c2.3-3.03,4.24-6.3,5.94-9.57,3.39-6.66,5.82-14.06,6.54-21.45.24-3.27.36-6.54-.36-9.82-.24-1.09-.48-2.18-.85-3.39-3.15-4.48-6.42-8.73-9.94-12.72-8-9.33-16.85-18.18-26.66-25.57-8.97-6.79-19.03-12.85-29.93-15.51-9.57-2.3-19.51-1.21-27.63,4.48-.85.61-1.82,1.33-2.67,2.06,12.6-3.64,26.18-2.67,38.17,2.91,2.18.97.24,4.12-1.82,3.15-12.73-5.94-28.12-6.18-40.96-.49-.49.24-.85.24-1.21.12-.36.12-.73.36-1.09.48-1.09.73-2.18,1.58-2.91,2.67-1.09,1.58-2.18,3.88-1.58,5.7.12.48.49.97.97,1.09,1.09.36,2.18,0,3.27-.36h.24c10.66-12.97,29.08-5.94,40.47,1.94,1.94,1.33.12,4.48-1.82,3.15-10.06-6.91-26.66-14.18-36.11-2.54-.12.24-.36.36-.49.36v.12c-1.57,3.64,1.94,7.51,5.09,8.85,2.06.85,4.48.85,6.79.97,5.21.24,10.91,0,15.88,1.82,4.48,1.7,6.91,5.33,6.42,10.18-.24,1.7-.49,3.15-1.82,4.48-1.09,1.21-2.42,1.94-3.88,2.42-3.27,1.09-6.79.97-10.18.85-2.42,0-5.09.49-6.79,2.3-1.09,1.21-1.58,2.79-.97,4.12.97,2.3,3.88,3.27,6.18,3.51,3.88.61,8,.12,11.88-.12,8-.49,16.24-.12,22.66,5.33,5.94,5.09,8.24,12.97,13.21,18.78,4.61,5.58,10.91,9.45,17.81,11.51h.48c1.09,0,2.18.36,3.03.85.73.12,1.45.24,2.18.36.73-.85,1.58-1.94,2.42-3.03ZM508.12,499.85c-1.82-13.82-6.06-27.39-12-39.99-6.91-14.9-16-28.6-26.9-40.96-.49-.61-.61-1.21-.36-1.82l-1.21-.36c-2.79-3.76-5.69-7.39-8.72-10.91-12.36-15.03-25.93-29.33-40.11-42.66-11.76-10.91-23.99-21.45-37.32-30.42-9.09-6.06-18.66-11.27-28.72-15.39.36,1.09.73,2.18,1.09,3.27.24.73,0,1.33-.36,1.7.12.36.24.73.12,1.09-1.33,6.54-4.36,12.48-8.6,17.57-7.39,8.6-18.18,13.94-29.33,15.15-11.51,1.21-23.15-2.3-31.75-10.06-1.7-1.57.85-4.12,2.54-2.54,4.48,4,9.82,6.79,15.63,8.24,20.12,4.85,42.41-7.39,47.62-27.51-7.39,3.64-15.15,6.54-23.15,8.97-32.36,9.57-67.86,8.6-99.61-3.15-.97-.36-1.33-1.21-1.21-2.06-11.39,6.67-22.06,14.54-31.75,23.39-11.51,10.54-21.69,22.42-30.42,35.27-1.58,2.42-3.15,4.85-4.6,7.27h21.81c5.7,0,10.79,4.36,12.48,10.79l12,43.63c0-2.18.85-4.6,1.94-6.3.97-1.33,2.06-2.42,3.27-3.39.61-.48,1.33-.85,2.06-1.21.12-.12.36-.12.48-.24.12,0,.36-.24.49-.24.12-.12.36-.48.49-.61,1.94-2.3,4.24-4.36,6.66-6.18,8.85-6.54,20-7.88,30.54-5.45,11.88,2.67,22.78,9.33,32.36,16.6,10.42,8,19.87,17.33,28.24,27.51,1.94,2.3,3.88,4.73,5.7,7.27.97-2.91,3.52-4.97,6.06-6.66,3.64-2.3,7.27-4.36,11.63-5.21,8.48-1.57,16.97.85,25.33,2.42.61.12,1.09.24,1.7.36.24,0,.48.12.73.12s.61-.12.85-.12c.85-.24,1.58-.36,2.3-.61,1.82-.61,3.76-1.21,5.57-1.94,4.61-1.7,9.21-3.63,13.69-5.57,10.3-4.24,20.72-8.6,31.63-11.39,3.51-.85,7.39-1.7,11.27-2.06-.36-.73-.85-1.33-1.21-1.94-.36-.48-.73-.97-1.33-1.45q-.12-.12,0,0c-.12-.12-.24-.24-.49-.36-.24-.24-.48-.61-.73-.97-.36-.49-.73-.97-1.09-1.33-3.15-3.64-7.03-6.3-11.39-8.36-6.91-3.15-15.39-4.12-21.09-9.45-8.12-7.51-4.73-21.21-2.3-30.3.61-2.3,4.12-1.33,3.51.97-1.58,5.82-3.03,12.12-2.42,18.18.36,3.64,1.57,6.67,4.12,8.97,2.3,2.06,5.7,3.27,8.73,4.36,8.36,2.91,16.6,5.69,22.78,12.48.49.48.85.97,1.33,1.57.36.49,1.09,1.09,1.21,1.7.12,0,.12.12.24.12.12.12.24.24.36.24.24.24.49.48.73.73,1.21,1.45,2.18,3.15,3.15,4.85v.12c3.88.12,7.76.97,11.03,2.91,3.64,2.18,6.06,5.82,7.27,9.82.36,1.09.61,2.3.73,3.51.12.97.24,1.58-.24,2.42-.24.49-.61,1.09-.97,1.58-1.21,1.58-2.67,3.03-4.73,3.27-4,.48-6.79-3.64-8.6-6.54-2.67-4.24-4.6-8.85-6.79-13.33-.73,0-1.45,0-2.06.12-10.18.85-20.24,4.48-29.69,8.24-9.21,3.63-18.18,7.76-27.51,11.15-1.7.61-3.27,1.21-5.09,1.58-.73.24-1.45.36-2.06.48-1.7.36-3.76-.36-5.33-.73-8-1.58-16.48-4-24.6-1.7-3.64,1.09-7.27,3.15-10.18,5.57-2.06,1.7-3.15,3.64-2.79,6.3.24,1.58.85,3.15,1.09,4.61.36,1.58.48,3.15.61,4.73.12,3.39-.12,6.91-.73,10.3-1.33,7.15-3.88,14.18-7.39,20.6-1.7,3.15-3.64,6.06-5.82,8.85-1.09,1.33-2.18,2.67-3.39,3.76-.61.48,0,0-.36.36h-.12v.12c.12.12.12.24.24.48,0,.12.12.12.12.24,0,0,0,0,.12.12.12.24.36.36.61.61.24.24.48.49.73.61.24.24.49.36.61.48,3.15,2.3,6.79,4.12,10.42,5.7,11.15,4.97,23.15,8.48,35.02,11.39,13.69,3.39,27.63,5.94,41.69,6.79,11.27.61,22.78-.12,34.05-.85,12.85-.85,25.69-1.94,38.54-3.52,5.09-.61,10.3-1.33,15.39-2.3,1.94-.36,3.88-.73,5.82-1.21.73-.24,1.45-.36,2.18-.61.36-.12.61-.24.97-.36.12,0,.49-.24.61-.24,7.27-3.27,11.88-11.03,14.18-18.3,3.52-10.42,3.52-21.81,2.18-32.72ZM363.06,467.01h.12c-.24,0-.36,0-.12,0ZM448.26,462.28v-.24c-.12-.48-.24-1.09-.36-1.7-.24-.97-.49-2.06-.97-3.03-2.3-5.45-7.03-7.64-12.36-8.24,1.45,3.03,2.91,6.06,4.48,8.97.97,1.82,1.94,3.51,3.27,5.09.49.61,1.09,1.21,1.58,1.45.12.12.36.24.48.24.24.12.12,0,.12.12.12,0,.24.12.49.12h.36c.12,0,.24,0,.36-.12,0,0,.24-.12.61-.36.36-.24,1.09-1.21,1.58-1.82.12,0,.24-.24.36-.49ZM448.26,462.28c0,.24.12.24,0,0h0ZM123,459.74c3.03,4.97,3.64,11.88.61,17.09-3.03,5.45-10.06,8.12-15.75,5.21-4.97-2.55-7.39-8.6-7.39-13.94,0-4.24,1.45-8.24,4.36-10.91.12-.48.36-.85.85-1.21,3.03-2.06,6.79-3.15,10.3-2.18,2.91.97,5.45,3.27,7.03,5.94ZM119.12,460.46c-1.33-1.7-2.91-2.79-4.97-3.27-.73-.12-2.06-.12-3.03.12q-.12,0-.24.12c-.24.24-.49.36-.73.48-4.85,1.82-6.67,7.15-6.06,12,.24,1.94.97,4.12,2.18,5.94.97,1.58,2.54,2.91,4.24,3.39,1.94.61,4.24.36,6.3-.61,2.06-1.09,3.64-3.15,4.36-5.21,1.58-4.24.73-9.45-2.06-12.97ZM276.9,344.49c.97-2.06-2.18-4-3.15-1.82-3.76,7.88-11.27,12.85-19.75,14.18-7.51,1.21-16-.85-20.96-6.91-3.15-3.76-4.24-8.6-4.12-13.45,0-2.3-3.64-2.3-3.64,0-.12,4.97.97,10.06,3.88,14.3,2.54,3.76,6.18,6.42,10.42,8.12,8.48,3.39,18.54,2.06,26.3-2.55,4.85-2.79,8.73-6.91,11.03-11.88ZM267.21,271.78v.12-.12ZM242.12,218.46c1.09.24,1.82-.36,2.18-1.21,1.45-3.64,3.03-7.39,4.48-11.03.36-.85-.36-2.06-1.21-2.18-1.09-.24-1.82.36-2.18,1.21-1.45,3.64-3.03,7.39-4.48,11.03-.36.85.36,1.94,1.21,2.18ZM264.18,274.21c-1.7-2.79.36-6.42,3.03-7.76.85-.48,1.82-.73,2.79-.85.24-3.51,4.12-5.94,7.39-6.18,1.94-.12,4,.61,5.33,1.94.61.61,1.09,1.46,1.45,2.3,2.3-2.79,4.12-6.06,5.21-9.57.73-2.18,4.24-1.21,3.51.97-1.21,3.88-3.27,7.51-5.7,10.66.36.24.61.61.73.97.97,2.91,1.21,6.06.73,9.09-.73,4-3.39,8.24-7.76,8.97-4.97.85-8.73-2.91-11.15-6.79-3.88,1.21-8,1.82-12.24,1.58-2.3-.12-2.3-3.76,0-3.64,2.67.12,5.21-.12,7.76-.61-.48-.24-.85-.61-1.09-1.09ZM267.21,272.39c.24.24.12.12,0,0h0ZM282.6,270.57c-2.79,2.54-6.06,4.6-9.57,6.06.49.73.97,1.33,1.45,1.94l1.33,1.33.12.12c.12.12.24.12.24.24.24.12.49.36.73.49.12.12.24.12.36.24,0,0,.12,0,.12.12.12,0,.36.12.48.12.24,0,.36.12.61.12,0,0,.36,0,.36.12h1.09c.12,0,.36-.12.48-.12s.49-.12.49-.12c.12,0,.24-.12.36-.12.12-.12.36-.12.48-.24,0,0,.24-.12.24-.24l.12-.12q.12-.12.24-.24c.12-.12.24-.24.36-.36.12-.12.24-.24.24-.36,0,0,.24-.24.24-.36.24-.36.48-.85.73-1.21,0-.12.12-.36.24-.36.12-.12.12-.36.24-.49.12-.48.24-.97.36-1.45.12-.49.12-.85.24-1.09.12-1.7,0-3.15-.24-4.61-.24.61-.97,1.09-1.7,1.09-.12-.36-.24-.36-.48-.48ZM273.51,266.09v.36c1.57.85,2.91,2.18,3.88,3.64,1.33-.97,2.67-2.06,3.88-3.15-.12-.49-.24-1.09-.36-1.58v-.12c0-.12-.12-.12-.12-.24-.12-.24-.24-.36-.36-.61l-.12-.12-.12-.12c-.12-.12-.24-.24-.48-.36-.12,0-.12-.12-.24-.12-.12-.12-.24-.12-.48-.24h-.12c-.12,0-.36-.12-.49-.12h-1.21c-.36.12-.73.12-.97.24q-.12,0-.24.12c-.12.12-.24.12-.36.24-.24.12-.61.36-.85.48l-.12.12c-.12.12-.24.24-.36.36l-.24.24c0,.12-.12.12-.12.24-.12.12-.12.24-.24.36v.12c0-.12-.12,0-.12.24ZM270,269.36h.12-.12ZM267.09,271.9v.24c0-.12-.12-.12,0,0v.12-.12q.12.12.24.24c.12.12.24.12.36.24.36.12.61.12.97.24h.97c.49,0,.97.24,1.21.48,1.09-.48,2.06-.97,3.15-1.45-1.21-.73-2.42-1.57-3.15-2.79h-.97c-.12,0-.73.12-.85.24,0,0,.36-.24.12-.12,0,0-.12,0-.12.12-.12,0-.24.12-.36.24-.12.12-.24.12-.36.24-.24.12-.36.36-.49.49l-.12.12c0,.12-.12.12-.12.24-.12.12-.12.24-.12.36s-.12.24-.12.36c-.12.24-.24.24-.24.48ZM252.18,220.16c1.09.24,1.82-.36,2.18-1.21,1.33-3.39,2.54-6.79,3.88-10.06.36-.85-.36-2.06-1.21-2.18-1.09-.24-1.82.36-2.18,1.21-1.33,3.39-2.55,6.79-3.88,10.06-.36.73.36,1.94,1.21,2.18ZM254.85,178.96h2.79c.48,0,.97-.24,1.33-.49.36-.36.61-.85.49-1.33,0-.49-.12-.97-.49-1.33-.36-.36-.85-.49-1.33-.49h-2.79c-.49,0-.97.24-1.33.49-.36.36-.61.85-.49,1.33,0,.48.12.97.49,1.33.36.36.85.49,1.33.49Z"/>
</svg>