<?xml version="1.0" encoding="UTF-8"?>
<svg id="Layer_1" data-name="Layer 1" xmlns="http://www.w3.org/2000/svg" viewBox="0 0 1038.07 992">
  <defs>
    <style>
      .cls-1 {
        fill: #98cfb0;
      }

      .cls-2 {
        fill: #0b0b0b;
      }

      .cls-3 {
        fill: #f9f9f9;
      }

      .cls-4 {
        fill: #fafafa;
      }

      .cls-5 {
        fill: #161615;
      }

      .cls-6 {
        fill: #efdc74;
      }

      .cls-7 {
        fill: #f0a8b2;
      }

      .cls-8 {
        fill: #f1f2f1;
      }

      .cls-9 {
        fill: #9bc9e4;
      }
    </style>
  </defs>
  <path class="cls-2" d="M281.07,686.69c6.11-9.01,13.97-18.89,21.03-27.46,32.69-39.74,75.55-73.93,124-92.19,1-13.29,4.19-27.64,4.96-40.79.12-2.01.43-6.23-.12-7.86s-12.05-3.5-15.14-4.85c-28.37-12.37-16.28-51.84-15.87-75.6l-74.4-27.08c-3.6-2.97.79-5.94,3.02-8.07,27.91-26.7,50.33-52.35,76.01-80.95,2.94-3.27,17.04-16.79,18.05-19,1.11-2.44-4.8-9.12-6.39-12.62-9.07-19.95-3.36-39.87,13.38-53.31,12.1-9.72,23.47-12.84,37.84-5.88,3.4,1.65,12.55,9.51,13.35,9.71,1.33.34,22.44-5.19,26.92-5.73,36.16-4.35,81.44,5.89,107.4,32.33,5.27,5.37,10.85,10.55,16,16,29.88,31.6,23.74,78.86,7.15,115.15-2,4.37-8.39,13.27-9.01,17.07-.52,3.19,1.25,8.52.57,13.48-1.81,13.37-12.86,28.8-25.96,33.02-2.41.78-11.21,1.65-11.71,3.34l21.92,89.6c.98,1.87,10.21,2.44,13.02,3.23,58.43,16.39,144.93,106.49,183.99,153.44,45.13,54.23,89.42,124.38,85.05,198.46-1.38,23.47-12.89,58.42-37.61,66.36-24.84,7.98-65.65,9.93-92.44,12.06-3.51.28-5.76-1.49-5,3h-6c-.09-.93.54-1.74-.63-2.02-2.01-.47-10.95-.82-9.37,2.02-20.94-1.05-43.23,1.41-64,0-4.29-.29-10.56-1.52-15.33-2.16-46.04-6.23-94.29-18.82-135.16-40.83-3.7,19.92-18.58,36.41-39,40-123.13-.97-246.65,1.92-369.55-1.46-14.56-4.18-25.56-15.09-30.94-29.05-13.96-.51-25.1-1.92-30.79-16.2C40.56,868.2,18.82,795.06.09,721.16c0-2.95-.26-5.95.1-8.88.6-4.87,4.66-6.14,4.88-10.6,1.92-1.1,3.86-2.61,4-5,2.01-.61,7.79-2.77,9-4l3-1c75.98-.36,152.02.49,228,0,3.32-.02,6.68.04,10,0,2.33-.03,4.67.05,7,0,3.2-.06,6.96.35,10,0,6.35-.74,3.57-2.89,5-5ZM449.07,293.87c-.72-.77-6.83,1.81-8.05,2.44-10.96,5.68-34.79,34.84-44.46,45.52-19.77,21.84-37.76,45.44-60.47,64.48l71.5,27.47c1.41,2.8-2.31,25.13-2.56,30.46-.86,18.71-2.86,36.04,17.52,43.54,3.6,1.32,15.42,2.92,16.36,5.64l-5.61,60.1c19.49,14.56,44.47,17.76,68.32,17.25,29.44-.63,74.82-11.59,100.12-26.87,3.26-1.97,6.42-2.92,5.26-7.53l-22.1-90.91c-.95-2.47-26.2-5.79-19.89-14.25,2.37-3.17,7.47,2.14,10.7,3.45,36.95,14.92,65.07-33.31,34.89-58.87-8.64-7.31-19.55-10.04-30.51-6.46-12.59,4.11-13.58,23.81-20,26.99-3.43,1.69-13.76-1.75-14.82-5.2-2.29-7.47,10.7-30.63,10.84-40.84.06-4.15-4.45-17.85-7.53-20.43-2.9-2.42-6.69-.07-9.95.03-21.81.65-36.14-8.11-37.55-31.03-10.24,2.14-19.23,7.21-30.05,5.55-15.45-2.38-22.45-15.94-21.95-30.53ZM289.07,691.69h28.5c1.46,0,9.01,5.24,10.39,6.61,7.54,7.48,15.51,43.01,18.82,55.15,2,7.31,3.89,14.75,5.29,22.2l11.2-83.24c2.01-4.36,7.29-3.57,7.47,1.58l-9.68,78.67c10.51-4.73,16.27-14.58,26.07-20.41,54.5-32.44,124.92,33.33,156.89,72.91,1.5,1.86,5.58,9.15,6.05,9.46,1.89,1.29,4.88-4.31,6.09-5.39,22.78-20.47,44.74-14.7,72.43-10.54l65.47-5.07c-12.74-26.42-28.72-51.27-42.06-77.45-2.25-3.74,1.53-6.79,5.06-5.03l45.99,82.06,44.54-3.65c2.42-.46,5.13,2.9,4.03,5.07-2.15,4.26-10.23,2.66-14.06,3.02-32.47,3-67.55,6.99-99.97,8.03-24.32.78-46.15-10.22-68.21,2.79-17.63,10.39-9.51,15.16-8.46,30.78,1.48,22.09-8.53,49.61-21.06,67.66-2.71,3.91-6.21,7.06-8.74,11.04.96,5.62,33.84,18.64,40.15,20.9,47.04,16.84,98.35,26.22,148.23,24.68,40.35-1.25,87.3-4.08,126.73-12.27,50.64-10.52,45.19-82.25,35.32-120.64-16.36-63.65-64.2-123.39-108.48-170.44-32.89-34.95-78.83-80.21-120.72-103.23-7.23-3.97-27.21-13.17-34.87-13.24-3.85-.04-16,8.88-20.76,11.23-41.63,20.54-123.92,36.6-163.59,7.23-3.32-2.45-4.83-6.8-9.31-6.24-4.35.54-18.12,7.86-22.79,10.3-38.71,20.19-83.22,59.18-107.2,95.76-.97,1.49-6.16,8.38-4.78,9.72ZM20.8,698.91c-11.67,4.34-14.15,15.65-12.49,27.02l58.47,211.43c1.81,5.95,5.49,9.67,11.26,11.74l292.58.52c12.37-1.08,17.06-15.65,15.21-26.3l-58.04-212.87c-2.15-5.91-7.39-11.92-14.19-11.81l-292.81.27ZM387.07,760.67l2.44,1.95c10.91-3.8,22.63-3.46,33.92-1.83,4.9.71,27.55,5.55,28.47,10.5,1.59,8.6-13.75.37-17.31-.66-19.27-5.57-34.94-5.23-54.05.98-7.52,2.44-19.29,7.48-17.5,17.5,1.61,9,13.01-4.44,15.1-5.91,16.92-11.94,46.4-1.9,61.66,9.21,4.94,3.59,6.32,7.52-.98,8.04-14.67-9.19-33.56-19.86-51.3-13.86-12.61,4.26-19.59,17.09-5.12,24.21,7.09,3.49,22.62,1.97,31.16,2.84,26.02,2.62,30.14,31.18,5.75,34.71-7.51,1.09-27.51-2.84-26.32,9.77.45,4.78,6.46,6.85,10.67,7.4,20.59,2.68,41.98-6.61,60.89,8.1,20.97,16.32,17.65,41.42,50.97,53,3,1.04,11.74,3.62,14.12,2.02,2.15-1.44,9.96-14.32,11.61-17.4,8.55-15.92,17.54-45.85,10.88-63.19-5.36-13.94-42.01-50.97-54.58-61.39-29.2-24.22-73.86-50.34-110.47-26ZM367.08,797.63c-.29-.28-6.44.08-8-.99l18.08,67.89c.9.64,8.64-1.58,8.92-1.95.48-.63-3.67-8.31,2.59-14.87,10.38-10.87,25.13-2.39,34.75-8.25,5.59-3.4,4.87-10.93.16-14.85-12.4-10.33-46.48,4.31-55.41-18.59-1.16-2.98-.79-8.11-1.1-8.4ZM394.57,927.58h104.5c-6.91-5.6-13.47-10.43-18.83-17.66-8.54-11.51-12.97-27.65-26.99-34.21-17.9-8.37-34.84.34-52.45-3.34-3.5-.73-7.72-3.63-11.44-3.48-.48.02-8.95,2.39-9.26,2.75-.23.26-.02.94-.06,1.43l14.53,54.51ZM99.07,956.57c2.56,12.12,18.5,23.79,30.51,24.98l354.04.06c19.13.26,37.12-15.76,39.34-34.64.57-4.84,1.69-11.91-4.64-12.14l-124.6-.29c-3,7.5-5.11,15.28-12.72,19.47-.96.53-4.91,2.56-5.44,2.56H99.07Z"/>
  <path class="cls-5" d="M585.07,0c23.42,17.71,49.12,32.28,75.64,44.84,116.69,55.27,252.48,67.95,377.36,33.13v7l-50.98,11.52-26.13,64.83c-1.12,2.18-3.75,2.14-5.45.66-6.5-5.53-36.52-57.27-39.96-58.02-1.38-.3-1.71.78-2.34,1.63-10.77,17.72-19.33,37.1-30.34,54.63-2.04,3.25-3.98,7.77-8.37,4.76-6.16-6.1-28.75-61.61-32.02-62.96-.75-.31-2.18-.45-2.49.55-5.94,6.1-36.11,54-39.58,55.2-2.2.76-4.8.23-5.56-2.13l-21.79-64.69-3.53.94-45.95,47.02c-2.06,2.09-5.35,2.65-6.81-.27l-14.23-68.74c-2.74-.72-5.74,2.5-7.92,4.08-13.01,9.43-24.74,20.84-38.01,29.97l-10.53,9.97c-4.42-1.47-4.28-3.33-5-7-2.29-11.59-3.04-30.99-3.99-43.49-.61-8.08.3-16.4-1.01-24.48l-3.71.78-57.57,33.45c-2.09,1.25-3.94.8-5.21-1.26l4.5-71.96h11ZM627.06,34l-46.98-29-5.01,59.96c.53.59,7.43-3.14,8.67-3.82,12.22-6.78,27.04-14.88,38.63-22.36,1.21-.78,5.84-3.11,4.69-4.78ZM647.08,102.95l46-36.45-50-22.51,4,58.96ZM763.07,86.97l-54-14.99,12.01,58.96c1.72.45,2-.71,3-1.49,13.35-10.34,24.46-28.16,38.04-38.94l.96-3.54ZM834.07,99.96l-54-8c-.54.51,1.45,7.23,2.67,8.07,3.77,2.58,28.05,6.16,33.95,6.8,9.17.99,13.53,3.1,17.38-6.86ZM979.06,96.96l-54.99,6,32.51,49.97,22.48-55.96ZM906.07,102.96l-56-1,25.05,52.93c1.73.31,3.08.06,3.82-1.58,6.28-12.64,14.56-24.33,21.32-36.66,1.16-2.12,6.97-12.49,5.81-13.68ZM824.07,111.95l-38.99-5c.41,2.89.9,8.45,3.71,9.77,7.15,3.36,21.09,2.15,29.02,4.97,2.45.27,7.41-8.62,6.26-9.75ZM815.07,125.95l-24-3c-.82,9.46,4.46,10.43,12.51,10.98,7.53.51,8.99-.51,11.49-7.97ZM806.07,138.94l-11-1,3,10.99c1.57,1.48,9.38-8.55,8-9.99Z"/>
  <path class="cls-8" d="M745.07,991.55c-1.58-2.84,7.36-2.49,9.37-2.02,1.17.27.54,1.09.63,2.02h-10Z"/>
  <path class="cls-8" d="M766.07,988.55v3h-5c-.76-4.49,1.49-2.72,5-3Z"/>
  <path class="cls-8" d="M405.07,63.97c.19,0,1.61,1.83,3.05.58,1.2-1.04.66-3.51,1.43-4.59,1.14-1.59,15.85-2.86,18.98-3.02,66.37-3.46,135.25,12.44,194.75,41.31,1.63.79,8.8,4.14,9.36,4.64,1.59,1.43,1.27,3.89,1.46,4.07.25.24,5.41-1.27,6.97,0,.72,3.67.58,5.53,5,7,5.96,1.97,9.98,2.58,16.05,5.45,24.39,11.54,56.46,30.71,77.41,47.57,17.92,14.42,32.79,33.01,42.54,53.93-6.09,12.33-7.75,28.36-3.15,41.39-8.48,4.74-15.58,8.35-21.82,16.11-25.94,32.22-2.29,87,39.97,86.44l-1.86,12.85c2.39,2.31,8.16-.87,9.75.26.27.19,1.57,4.9,2.26,6.24,4.75,9.29,10.81,16.2,11.84,27.15,1.43,15.23-.78,26.48,5.25,41.73,1.57,3.96,4.08,12.29,9.28,7.74.98-.86,7.49-14.48,9.46-17.53,13-20.22,30.43-35.87,31.03-62.44,6.38,1.62,13.16,5.31,19.02,8.47,31.45,16.97,56.43,40.39,69.74,74.22,3.84,9.77,9.82,30.61,8.25,40.67-.2,1.26-3.82.3-5.02.58-4.99-5.68-9.65-12.14-16.69-16.81-26.57-17.63-62.97-5.42-72.58,25.04-4.07,12.92-3.34,23.8.27,36.74-30.55-.1-47.01,29.1-38.46,56.93,6.61,21.5,28.13,39.27,51.45,34.04-3.24,15.33,7.38,10.34,8,10.99.24.26.79,5.54,1,7l-52.91,31.57c-9.62,4.78-20.08,15.35-29.18,19.81-1.85.91-3.96,1.04-5.91,1.59-39.06-46.95-125.56-137.05-183.99-153.44-2.81-.79-12.04-1.35-13.02-3.23l-21.92-89.6c.5-1.69,9.3-2.57,11.71-3.34,13.1-4.22,24.15-19.65,25.96-33.02.67-4.96-1.1-10.3-.57-13.48.62-3.8,7.01-12.7,9.01-17.07,16.59-36.29,22.73-83.54-7.15-115.15-5.15-5.45-10.73-10.63-16-16-25.97-26.45-71.24-36.68-107.4-32.33-4.48.54-25.59,6.06-26.92,5.73-.8-.2-9.95-8.06-13.35-9.71-14.36-6.96-25.74-3.84-37.84,5.88-16.74,13.44-22.45,33.36-13.38,53.31,1.59,3.5,7.5,10.18,6.39,12.62-1,2.21-15.11,15.73-18.05,19-25.68,28.6-48.1,54.25-76.01,80.95-2.22,2.13-6.62,5.1-3.02,8.07l74.4,27.08c-.41,23.76-12.5,63.24,15.87,75.6,3.09,1.35,14.6,3.23,15.14,4.85s.24,5.85.12,7.86c-.77,13.15-3.96,27.49-4.96,40.79-48.45,18.25-91.31,52.45-124,92.19-7.05,8.57-14.92,18.46-21.03,27.46l-16.55-2.03c-5.61,1.38-10.83-1.22-16.43,1.04-3.01-12.93-7.87-25.23-13.13-37.37-1.25-2.89-2.65-5.81-3.88-8.62,4.6.33,10.58.18,11.08-5.48,1.01-11.23-15.07-12.21-14.08-.51-2.82.23-2.43-1.76-3.28-3.22-18.44-31.54-47.25-55.61-71.22-82.74-2-3.7,1.7-2.04,1.5-5,.41-.12,1.1-.72,2-1-.82,4.1,13.47,3.54,13.99,2.99.24-.26,0-5.66,1.01-6.99,1.98-.62,5.67-3.12,8.46-4.03,3.98-1.3,22.68-5.69,24.07-7.94.47-.77.6-1.59.54-2.48l-17.92-57.22c-.21-3.49,7.4-1.38,7.89-5.8.16-1.47-6.99-24.94-8.18-26.83-.78-1.24-1.44-2.43-3.15-2.43-3.8,0-22.64,7.72-23.71,6.78.47-3.35,4-4.92,5.83-7.66,3.53-5.27,6.52-14.03,5.16-20.33,24.52-17,48.9-34.36,70.99-54.48,12.46-12.79,29.01-38.82,29.01-56.97v-26.49c0-.35,6.8.67,7.01-.51,1.09-6.23-8.29,2.7-7.01-4.49,20.32-7.27,68-27.39,82.04-42.44,18.07-19.36-15.04-19.49-27.01-16.55-1.27-11.53-8.07-23.23-10.6-33.9-.97-4.11.46-7.11-1.98-11.01-6.41-10.24-23.73-13.37-34.45-16.04-1.5-8.51,3.45-14.12,7.78-20.71,19.29-29.41,56.15-58.3,92.21-60.71,2.21-.15,2.88.57,3.02-2.54,3.23,4.75,10.45,7.23,16.05,5.54,1.96-.59,5.88-4.51,6.95-4.54ZM449.8,89.14c-8.12,1.71-4.88,14.4,3.53,12.63,8.12-1.71,4.88-14.4-3.53-12.63ZM394.78,95.16c-7.23,2.17-4.89,14.39,3.55,12.62,7.77-1.64,5.57-15.35-3.55-12.62ZM499.76,95.16c-7.05,2.15-3.94,18.85,6.57,13.56,8.85-4.45,3.56-16.64-6.57-13.56ZM575.74,106.11c-2.73.94-3.43,6.1-1.74,8.41,1.31,1.8,9.49,4.16,12.57,6.42s7.81,10.09,8.48,10.51c4.46,2.74,10.03-1.42,8.08-7.01-2.57-7.37-19.02-21.2-27.4-18.33ZM518.78,136.14c-7.43,2.23-5.06,15.22,3.55,13.64,9.75-1.79,5.64-16.4-3.55-13.64ZM441.79,138.23c-8.16-6.66-16.52,8.16-7.71,12.19,7.65,3.49,14.96-6.27,7.71-12.19ZM479.81,141.11c-5.95,1.23-6.46,10.49-.8,12.38,11.66,3.87,12.19-14.73.8-12.38ZM387.83,170.68c3.91-3.9-1.02-6.85-2.58-9.43-2.16-3.58-7.84-16.25-10.89-17.14-16.29-4.78,3.34,36.67,13.47,26.57ZM642.79,153.13c-7.09,2.11-4.22,16.84,6.05,12.05,6.64-3.1,1.88-14.4-6.05-12.05ZM533.77,171.11c-4.73,1.47-3.18,10.91-4.17,14.84-1.14,4.55-8.9,11.08-5.61,15.53,5.68,7.67,13.42-4.68,15.27-9.88,2.14-6.02,5.36-23.86-5.49-20.5ZM453.78,175.11c-3.13.95-3.37,5.23-2.19,7.79,3.31,7.19,37.43,19.67,35.51,5.57-.62-4.56-9.68-4.05-13.83-5.26-2.52-.74-6.13-2.29-8.52-3.48-3.98-1.98-5.67-6.23-10.97-4.63ZM572.72,180.13c-4.05.36-5.32,4.88-4.65,8.25,1.29,6.46,25.78,14.3,31.73,11.77,4.02-1.71,6.36-6.79,2.21-9.69-3.05-2.13-8.78-1.3-12.76-2.23-4.55-1.07-14.26-8.3-16.53-8.1ZM687.79,182.09c-3.02.89-6.01,8.19-8.19,10.85-2.93,3.57-19.68,14.43-11.53,18.47,7.22,3.58,23.8-14.01,25.53-20.46,1.31-4.84.42-10.69-5.81-8.86ZM721.8,192.11c-8.1,1.78-5.53,16.53,3.54,14.62,9.89-2.08,7.63-17.07-3.54-14.62ZM420.81,201.08c-7.79,1.61-6.16,15.82,4.56,12.61,8.04-2.41,4.5-14.48-4.56-12.61ZM626.79,204.09c-5.94,1.73-5.84,14.83,4.59,11.62,6.62-2.04,2.67-13.73-4.59-11.62ZM399.8,239.07c-10.16,2.12-5.6,19,4.63,13.68,7.37-3.84,3.12-15.3-4.63-13.68ZM651.78,253.09c-5.32,1.59-6.46,10.43-.46,13.03,13.1,5.67,15.09-17.41.46-13.03ZM331.81,265.04c-8.74,1.58-7.58,17.33,4.57,13.64,6.41-1.95,3.96-15.18-4.57-13.64ZM378.81,280.05c-8.18,1.68-4.21,13.72,2.54,12.66,8.36-1.32,7.1-14.64-2.54-12.66ZM699.79,281.02c-8.33,2.29-11.62,35.97-.22,35.94,8.61-.02,2.94-11.68,3.49-17.6.37-3.94,4.09-10.4,3.96-13.04s-4.49-6.06-7.23-5.31ZM298.8,292.07c-8.09,1.81-5.58,16.14,3.52,14.62,11.13-1.86,7.29-17.03-3.52-14.62ZM359.76,317.05c-6.77,2.08-2.98,14.38,4.35,12.38,8.35-2.29,5.6-15.43-4.35-12.38ZM325.78,351.03c-4.61,1.39-3.56,11.07,1.85,11.83,10.19,1.43,8.05-14.81-1.85-11.83ZM704.78,351.05c-5.8,1.74-5.91,11.42.25,13.35,12.38,3.87,12.51-17.18-.25-13.35ZM274.77,356.02c-2.1.65-8.65,12.5-11.53,14.52.18,16.71,17.27-.13,19.4-6.65,1.76-5.4-2.56-9.51-7.87-7.87ZM672.81,365.01c-8.76,1.79-7.59,17.23,4.56,13.61,7.32-2.19,5.16-15.59-4.56-13.61ZM784.82,408.98c-7.27,1.31-5.76,14.82,4.56,11.64,6.44-1.98,3.11-13.02-4.56-11.64ZM906.78,412.03c-11.98,2.75.6,23.16,8.74,10.74,4.13-6.3-1.5-12.4-8.74-10.74ZM718.79,414.01c-6.17,1.38-24.43,23.99-15.73,28.29,7.64,3.78,9.44-6.44,13.03-10.97,3.84-4.83,10.65-6.43,10.06-13.03-.39-4.39-3.38-5.18-7.36-4.29ZM233.77,419c-6.79,2.08-3.84,16.2,5.34,13.39s5.43-16.68-5.34-13.39ZM749.79,423.99c-6.16,1.79-2.57,16.81-1.02,21.6,2.66,8.2,11.28,7.02,11.38-.27.08-5.32-2.68-23.57-10.37-21.33ZM275.81,432.96c-8.81,1.59-7,17.02,3.54,14.64,10.58-2.39,4.69-16.13-3.54-14.64ZM312.81,443.96c-5.58,1.07-6.51,9.74-1.51,12.09,10.7,5.04,12.32-14.16,1.51-12.09ZM877.72,461.09c-10.49.58-8.67,18.67,3.09,13.94,7.41-2.98,4.95-14.38-3.09-13.94ZM349.79,463.96c-7.53,2.25-18.09,32.95-3.43,28.61,4.37-1.29,3.56-7.35,4.94-11.07,1.58-4.24,6.51-9.85,5.36-13.75-.89-3.04-3.66-4.75-6.87-3.79ZM821.79,488.5c5.8-5.81-1.7-15.29-9.29-10.78-8.62,5.13,2.29,17.79,9.29,10.78ZM271.77,485.97c-4.79,1.47-5.35,11.13,1.02,12.59,13.37,3.05,11.48-16.41-1.02-12.59ZM234.81,503.95c-12.41,2.53-2.23,23.06,7.82,12.88,5.92-6-.98-14.27-7.82-12.88ZM753.81,504.92c-9.26,1.71-7.05,16.99,3.54,14.64,8.74-1.94,5.07-16.22-3.54-14.64ZM320.84,553.51c1.19-1.18,2.15-6.31,2.28-8.22.38-5.86-2.62-23.93-11.33-21.36-6.32,1.86.08,13.06.19,17.43.07,2.91-1.48,4.99-.69,8.67.89,4.15,6.25,6.77,9.56,3.48ZM369.31,528c-5.98,5.97,5.15,16.05,9.82,8.32s-5.57-12.56-9.82-8.32ZM697.78,527.98c-6.68,1.97-4.2,14.75,4.31,12.38,7.73-2.15,5.54-15.28-4.31-12.38ZM819.78,535.96c-8.29,2.49-3.83,16.55,6.27,12.27,6.59-2.8,2-14.75-6.27-12.27ZM734.78,550.94c-3.45,1.04-3.34,5.61-1.75,8.36,1.7,2.95,13.32,8.17,16.68,8.42,5.27.39,8.79-5.66,4.93-9.04-.65-.56-14.48-7.48-15.31-7.7-1.52-.41-3.02-.5-4.54-.04ZM229.77,563.91c-2.31.7-6.4,10.33-8.73,13.31-2.95,3.78-10.31,7.62-8.8,12.8,4.06,13.9,24.62-12.68,24.9-19.8.17-4.18-3.16-7.59-7.38-6.31ZM284.79,564.9c-8.4,1.32-7.41,14.56,2.72,12.85,8.02-1.36,4.16-13.93-2.72-12.85ZM774.8,603.88c-6.28,1.67-3.44,20.58-.12,22.73,3.58,2.32,8.53.5,9.24-3.63.21-1.23-.77-10.75-1.08-12.52-.68-3.86-3.87-7.69-8.04-6.58ZM288.84,608.91c-8.89,1.12-7.65,15.74,1.63,14.8,9.44-.96,8.27-16.05-1.63-14.8ZM814.79,620.92c-4.95,1.45-5.62,10.52.23,12.36,11.09,3.48,12.04-15.95-.23-12.36ZM829.8,660.85c-13.85,3.68,14,37.64,18.87,21.86,1.26-4.09-6.64-8.72-9.04-12.08-2.48-3.46-3.65-11.43-9.83-9.78Z"/>
  <path class="cls-5" d="M272.07,133.94c.64,1.54,1.44,3.47,2,5,.66,1.78.69,5.56,1.9,7.4.83,1.25,2.16.36,3.1.6,10.72,2.67,28.04,5.8,34.45,16.04,2.44,3.9,1.01,6.9,1.98,11.01,2.53,10.68,9.33,22.37,10.6,33.9,11.96-2.93,45.08-2.8,27.01,16.55-14.05,15.05-61.72,35.17-82.04,42.44-17.74,6.34-66.59,20.74-83.24,14.73-17.62-6.36,7.82-25.38,16.24-27.74.99-1.3-9.62-26.63-10.71-30.76-2.36-8.95-1.3-8.82,3.74-15.68,5.99-8.15,13.62-15.25,19.83-23.24.18-7.2-12.17-26.01-8.37-32.28,1.27-2.1,8.64-3.85,11.09-2.05,3.29,2.4,6.19,20.84,9.85,20.02.52-.12,7.12-6.63,7.64-7.42,3.61-5.46-13.52-22.35.66-25.29,11.26-2.34,8.1,9.73,12.26,12.34,1.56.98,7.39-2.72,10.02-1.58.74-5.23-6.56-13.64-1.01-16.99.87-.52,4.72-2.91,5-3,5.3-1.75,6.51,2.39,8,6ZM266.99,134.02c-1.76-.43-4.93-.33-4.77,2.21l10.34,29.7c.63,1.18,4.16,1.3,4.51.98,1.51-1.4-9.82-28.44-10.07-32.89ZM238.58,141.94c-.97.28-1.94,2.11-1.35,3.25,4.26,8.91,6.48,19.59,10.65,28.41,3.24,6.86,6.31,4.74,4.7-1.7-.88-3.53-9.15-26.41-10.64-28.35-.94-1.22-1.61-2.12-3.36-1.62ZM278.07,152.94c-1.22,1.09,11.45,20.01-4.52,19.07-7.9-.46-6.42-16.14-10.47-18.6-1.71-1.04-8.56-.08-10.03,1-5.54,4.08,14.86,25.98-1.74,28.29-9.52,1.32-7.16-15.8-11.72-14.77-1.03.23-8.06,8.28-8.36,9.73-.75,3.62,7.28,12.75-4.65,14.26-5.77.73-4.72-2.32-8.55-1.55l-17.96,23.52c37.34-10.39,73.35-25.38,109-40.46,3.64-4.09-2.71-10.58-6.07-12.94-3.18-2.23-22.63-9.6-24.93-7.55ZM217.01,154.98c-1.8-1.16-4.09.55-3.78,3.2.96,8.07,8.56,18.58,10.07,27.01,1.96,4.26,5.47,3.15,4.58-1.53-2.18-3.41-9.46-27.77-10.87-28.68ZM311.98,179.01c-1.63-1.15-20.44,7.95-23.94,9.37-29.23,11.87-59.45,23.71-89.97,31.53-.43.48,3.51,11.86,3.89,12.39.9,1.26,3.99.67,5.37.36,23.49-5.27,60.78-20.66,83.72-30.26,5.97-2.5,18.1-6.95,22.95-10.06.72-.46,1.66-1,1.75-1.89-.93-1.67-3.18-11-3.78-11.42ZM318.03,196.95l-112.87,41.04c.35,11.58,4.62,8.53,12.68,6.17,30.7-8.99,61.54-20.5,90.92-33.06,8.89-3.8,13.63-3.11,9.27-14.15ZM322.06,210.9c-1.03-.89-21.74,9.13-25.02,10.47-28.29,11.52-57.47,21.48-86.94,29.56-.46.53,1.67,13.69,5.22,11.79,32.23-10,65.62-20.43,96.11-34.96,1.84-.88,12.15-5.4,12.52-5.98,1.13-1.77-2.22-8.36-1.89-10.87ZM187.07,275.86c2.56.37,5.04,1.62,7.6,1.9,30.54,3.3,109.15-27.91,136.7-44.07,20.51-12.02,34.41-26.14-3.31-20.79-.17,3.78,3.35,7.28,1.52,10.99-2.46,5-62.73,27.8-72,31-14.91,5.16-30.01,9.81-45.3,13.8-4.84,1.2-3.42-10.06-7.54-9.69-3.43.3-19.94,13.59-17.68,16.85Z"/>
  <path class="cls-5" d="M171.07,409.81c1.35,6.3-1.64,15.06-5.16,20.33-1.83,2.74-5.36,4.31-5.83,7.66,1.07.95,19.91-6.78,23.71-6.78,1.71,0,2.37,1.19,3.15,2.43,1.19,1.89,8.34,25.36,8.18,26.83-.49,4.43-8.11,2.31-7.89,5.8l17.92,57.22c.06.88-.07,1.71-.54,2.48-1.38,2.25-20.09,6.64-24.07,7.94-2.79.91-6.48,3.41-8.46,4.03-1.06.33-2.46.52-4,1-1.08.33-2.45.52-4,1-2.21.68-4.75,1.31-7,2-.9.28-1.59.88-2,1-3.38,1.02-8.14,1.36-12,2.5-6.45,1.91-34.5,12.17-38.49,11.55-.84-.13-1.56-.25-2.03-1.04l-17.52-57.96c-1.17-1.03-8.08,2.85-10.48-.02-2.91-3.48-5.58-22.33-8.43-27.54.22-4.93,20.18-8.97,24.95-10.97.95-.4,2.29-.1,1.99-1.47-15-1.36-32.55-13.76-25.18-30.68,8.99-20.65,36.56-6.67,48.21,4.16,1.5,1.39,5.27,7.7,6.97,6.52.36-17.65,19.22-54.9,40.76-38.23,2.01,1.56,6.79,8.12,7.25,10.25ZM149.07,437.8c6.64-5.35,15.5-11.09,16.94-20.56,1.7-11.17-9.83-20.41-20.29-14.28-4.75,2.79-13.93,16.06-14.65,21.36-.25,1.84,1.15,2.18,1.98,1.47.32-.27,3.13-5.51,4.51-7,4.49-4.85,10.84-7.72,16.46-2.44,6.74,6.34-2.71,15.9-5.95,21.44-3.66-.65-4.6,3.56-7.99,4.01.92,2.83,6.88-.82,8.31-1.97.94-.76.6-1.97.68-2.04ZM135.43,430.15c-.96,2.12-4.14,10.89-.01,10.53,1.67-.14,12.23-9.51,13.49-11.54,6.37-10.32-.28-16.42-8.83-5.83-.61.75-4.47,6.45-4.64,6.84ZM91.57,452.8c6.25.84,14.05-.61,20.5,0l-18.21-3.3c-11.98-3.48-13.02-21.45,3.73-19.73,4.31.44,6.93,3.03,10.39,4.62,1.45.67,2.81.68,2.08-1.07-.52-1.24-11.68-8.57-13.6-9.4-8.83-3.82-20.77-3.91-24.11,6.68-3.7,11.76,8.79,20.8,19.22,22.19ZM132.07,426.81c-2.93-.5-1.62.71-2.12,2.33-.85,2.77-1.54,5.78-1.87,8.66,3,.53,1.57-.82,2.1-2.34.95-2.74,1.97-5.68,1.89-8.64ZM114.07,446.79c2.06-1.77-11.39-10.8-13-11.48-10.95-4.63-15.67,4.63-6.01,9,5.61,2.54,12.96,2.61,19.01,2.48ZM183.04,436.8c-10.72,3.63-23.09,5.86-33.52,9.95-1.62.64-3.87,1.11-4.45,3.03,6.08.07,17.98,15.17,20.7,15.86s18.99-6.5,23.26-6.91l-5.99-21.93ZM158.57,437.8v1c.65-.33.65-.67,0-1ZM132.07,448.78c.68-11-17.05-4.78-12.08,1.61,2.61,3.35,8.55-1.42,12.08-1.61ZM163.07,472.78c2.7-2.56-9.48-12.44-11.52-13.97-2.29-1.72-14.21-9.94-16.48-8.01l11.42,15.07,7.08,12.91c2.49-5.99,2.41-6.82,9.49-6ZM148.1,537.73c.47.41,9.33-.58,8.8-3.25l-23.06-75.97c-2.19-7.7-10.57-5.03-8.54,2.53l22.8,76.68ZM120.06,456.8c-2.64-2.96-9.33,13.33-9.78,14.71-.81,2.5-4.21,17.15-3.21,18.27,2.89-.1,4.15-3.36,7.46-3.02,2.51.25,2.95,3.35,5.53,3.02-1.66-10.89-1.32-22.08,0-32.98ZM111.07,458.8l-37.87,12.11c-1.51,2.34,4.57,18,4.96,21.79,1.04.73,23.72-5.85,24.43-6.91,1.1-1.64,1.37-8.95,2.19-11.8,1.56-5.4,4.62-9.9,6.29-15.19ZM199.04,522.72c-2.64-6.48-14.54-53.85-16.93-55.5-1.52-1.05-11.65,2.11-12.02,2.61-.78,1.07,2.34,4.95,0,6.48-2,1.31-10.36,1.12-10.92,1.58s-2.14,15.55-7.61,8.9c-.71-.86-2.91-12.65-6.01-8.02-1.58,2.37,14.64,48.19,16.48,54.58,2.58,1.81,31.67-10.15,37-10.62ZM144.07,539.74c-3.26-6.19-14.7-54.33-17.51-54.96-4.64-1.03.06,11.51-1.49,12.99-5.56,1.83-7.67-5.55-12.46-5.03-2.47.26-5.06,4.62-7.9,4.94-3.03-.49-2.4-5.66-2.64-5.91-.66-.71-11.53,2.61-11.87,3.12-1.59,2.42,15.13,48.9,15.99,55.74,2.53,1.76,32.39-10.48,37.89-10.89Z"/>
  <path class="cls-5" d="M405.07,63.97c-1.07.03-4.99,3.94-6.95,4.54-5.6,1.69-12.82-.79-16.05-5.54s-1.01-15.73,4.64-18.86c13.21-7.32,25.72,6.69,18.36,19.86ZM397.83,59.73c4.21-4.21-1.68-13.47-7.72-8.21s3.09,12.85,7.72,8.21Z"/>
  <path class="cls-6" d="M167.85,308.14c5.54-.67,15.2-2,16.19,5.3,1.24,9.19-7.06,5.37-11.47,5.61-1.88.1-4.65.77-6.52,1.28-4.73,1.31-13.34,8.83-17.07,4.11-6.65-8.41,12.85-15.59,18.87-16.31Z"/>
  <path class="cls-1" d="M130.8,607.88c2.61-.7,12.02,5.59,17.22,6.4,4.4.69,15.11-1.08,16.06,3.96,1.72,9.12-6.82,8.12-13.5,7.48-4.54-.44-22-5.41-23.32-9.68-.91-2.96.38-7.3,3.54-8.15Z"/>
  <path class="cls-7" d="M209.85,353.11c8.24-.87,9.66,6.62,4.59,9.6-1.96,1.15-16.76,4.16-18.95,4.04-4.24-.24-6.48-7.48-2.37-10.35,1.54-1.07,13.91-2.99,16.73-3.28Z"/>
  <path class="cls-5" d="M226.39,132.62c-3.57-3.9-2.26-14.87-.83-19.73,1.26-4.27,5.1-1.02,7.42.65,5.34,3.84,8.87,8.04,8.12,14.91-.84,7.67-10.58,8.68-14.7,4.17ZM230.57,118.97c-2.45-.05-3.06,13.16,3.88,10.9,5.31-1.73-2.4-10.87-3.88-10.9Z"/>
  <path class="cls-5" d="M259.07,127.94c-4.33-.04-8.51-5.48-8.94-9.61-.35-3.36,1.08-20.06,7.03-14.72.42.38.75,1.96,1.84,2.89,7.07,5.99,12.48,11.07,5.07,20.45-1.62-.66-4.12,1.01-5,1ZM256.59,110.95c-3.82,2.7-.58,13.34,3.95,11.98,3.84-4.13,1-10.3-3.95-11.98Z"/>
  <path class="cls-5" d="M203.67,124.01c2.05-.47,11.67,9.41,12.47,11.34,5.56,13.31-12.78,16.74-15.63,7.63-1.05-3.35-.53-18.13,3.16-18.97ZM205.59,131.94c-3.49.73-1.58,13.01,4.86,10.91,4.95-1.61-2.33-11.44-4.86-10.91Z"/>
  <path class="cls-1" d="M231.07,639.71c-1.08-2.46-2.66-2-3-6-.99-11.7,15.1-10.72,14.08.51-.51,5.66-6.48,5.82-11.08,5.48Z"/>
  <path class="cls-6" d="M119.31,357.6c-2.76-2.76-1.62-11.09,3.32-11.78,6.93-.98,9.85,8.22,5.97,12.04-1.71,1.68-7.73,1.3-9.29-.26Z"/>
  <path class="cls-9" d="M266.07,691.69c-1.58-2.84,7.36-2.49,9.37-2.02,1.17.27.54,1.09.63,2.02-3.04.35-6.8-.06-10,0Z"/>
  <path class="cls-9" d="M249.07,691.69c-1.58-2.84,7.36-2.49,9.37-2.02,1.17.27.54,1.09.63,2.02-3.32.04-6.68-.02-10,0Z"/>
  <path class="cls-8" d="M9.07,696.68c-.14,2.39-2.08,3.9-4,5,.01-.21-2.15-1.53-.8-3.82,1.46-2.49,4.54-1.1,4.8-1.18Z"/>
  <path class="cls-8" d="M264.07,126.94v1c-.28.09-4.13,2.47-5,3v-3c.88,0,3.38-1.66,5-1Z"/>
  <path class="cls-8" d="M272.07,133.94c2.68-.66,3.69,3.42,2,5-.56-1.53-1.36-3.46-2-5Z"/>
  <path class="cls-9" d="M21.07,691.69l-3,1c.24-.25-.92-4,3-1Z"/>
  <path class="cls-5" d="M782.07,220.9c4.03-8.15,14.94-18.54,23.32-22.17,34.53-14.95,66.24,13.37,65.68,48.15,60.52-23.67,89.84,53.87,44.01,90.48-9.64,7.7-21.73,10.89-34.01,10.49.91,8.71,4.58,16.89-7.99,12.99-.95,6.67,1.14,13.58.99,19.99-.59,26.57-18.03,42.22-31.03,62.44-1.96,3.05-8.47,16.67-9.46,17.53-5.2,4.55-7.71-3.79-9.28-7.74-6.04-15.25-3.83-26.5-5.25-41.73-1.03-10.95-7.09-17.85-11.84-27.15-.69-1.34-1.99-6.05-2.26-6.24-1.59-1.13-7.36,2.05-9.75-.26l1.86-12.85c-42.26.56-65.92-54.22-39.97-86.44,6.24-7.76,13.35-11.37,21.82-16.11-4.6-13.03-2.94-29.06,3.15-41.39ZM818.83,200.17c-25.99,3.52-40.3,30.39-36.52,54.98,1.64,10.68,3.98,6.28,11.28,6.69,11.82.66,25.1,8.47,32.45,17.56,2.63,3.24,6.48,12.72,10.26,12.31,8.52-.91,6.88-8.35,9.28-14.81,1.66-4.47,5.5-10.75,8.5-14.49,3.39-4.22,12.21-9.79,12.03-14.95-.86-25.16-19.75-51.01-47.29-47.28ZM886.85,248.17c-25.25,3.03-41.97,30.97-39.66,55.07,4.29,44.69,54.93,52.35,77.07,15.31,18.3-30.61,1.9-75.1-37.41-70.38ZM818.72,279.23c-20.38-19.47-51.27-14.1-63.19,11.6-17.68,38.13,26.85,88.77,61.55,60.53,21.26-17.3,21.04-53.6,1.64-72.13ZM842.07,295.86l-5.97,1.04c-.74,3.46,3.74,6.53,3.76,9.64,0,1.46-1.63,2.45-1.74,3.86-.36,4.56.26,9.11-.3,13.69s-4.48,12.08-4.7,15.3c-.31,4.58,5.28,16.76,6.46,22.43,5.93,28.3-4.24,56.83-5.49,84.96,14.33-20.83,33.57-40.5,34.06-67.46-1.47-3.29-.47-20.59-1.17-21.41-.32-.37-5.28-.72-6.84-1.65-6.63-3.94,5.96-10.27,4.88-13.81-.28-.93-8.71-6.68-10.46-8.6-8.81-9.66-12.9-25.19-12.48-38.01ZM876.06,355.83c.23-4.08-.17-12.25-5.98-9.49-.35.17-5.91,4.62-6.01,5-.89,3.5,9.95,4.04,11.99,4.48ZM830.06,346.85c-1.51-1.1-6.65,6.42-8.52,7.97-1.74,1.45-7.55,4.26-8.03,4.99-2.41,3.69,7.25,7.04,5.48,12.39-.81,2.44-8.74,2.72-8.99,4.23,3.11,9.53,9.92,16.3,12.78,26.18,3.79,13.11.96,26.49,3.27,39.72.29,1.68.08,3.44,2.51,3.49,3.6-32.71,14.05-66.9,1.5-98.96ZM812.07,370.82c1.42-1.66-4.72-8.7-7.37-7.93-2.24.65-3.46,7.65-3.62,9.93l11-2Z"/>
  <path class="cls-5" d="M899.07,658.7c-.21-1.46-.76-6.74-1-7-.62-.65-11.24,4.34-8-10.99-23.31,5.23-44.84-12.54-51.45-34.04-8.55-27.83,7.91-57.03,38.46-56.93-3.61-12.94-4.34-23.82-.27-36.74,9.6-30.46,46-42.67,72.58-25.04,7.04,4.67,11.7,11.13,16.69,16.81.17.19-.17.82,0,1l1,3c.79,4.08,2.33,7.95,3,11.99.22,1.32.98,4.73,1,5,.28,3.77-1.31,21.42-3,23.99-.17.25-5.67,1.66-.5,2.99.74-.26,1.16-1.8,1.5-1.99,18.89-10.7,14.01,17.78,16.49,28,6.14,5.88,35.98,15.11,19.85,25.82-4.27,2.84-19.22,6.7-21.39,9.6-4.31,5.75-2.79,36.76-18.28,26.37-3.64-2.44-6.17-7.61-9.17-10.82.72,16.07-8.63,5.09-11.4,7.07s-7.16,25.24-7.19,29.41c-.14,22.15,20.45,53.1,6.49,74.36-6.16,9.38-6.66-5.56-7.91-9.89-8.41-28.95-31.98-34.45-37.49-71.98ZM957.69,558.38c14.34-25.09,7.8-63.94-23.41-71.31-33.31-7.87-58.44,17.8-53.95,50.93.33,2.46,3.06,11.92,4.78,13.21,1.61,1.2,7.68,2.75,10.63,4.37,2.67,1.47,7.19,4.58,9.36,6.64,6.75,6.43,7.76,17.55,18.99,15-.89-3.68-3.1-7.02-3.06-10.96.14-14.1,24.73.03,30.53-.52,3.69-.35,3.18-4.23,4.52-6.29.41-.62,1.44-.77,1.61-1.07ZM1003.94,595.85c-1.28-2.2-21.37-9.73-23.36-14.13-1.46-3.24-1.13-15.87-1.64-20.35-.16-1.42-.99-7.35-2.39-7.63-3.52-.7-17.44,16.15-22.02,17-6.4,1.19-22.27-6.95-25.83-5.92-1.17.34-1.51,1.35-1.67,2.45-.87,5.94,8.94,17.97,8.03,24.87-.69,5.25-14.03,20.24-12.94,23.97,1.06,3.6,17.98-.24,21.46-.38,2.09-.09,4.85-.38,6.79.19,2.09.62,11.5,11.74,13.72,14.28,1.57,1.78,3.33,7.54,7.34,6.45,3.79-1.03,5.11-21.74,8.16-25.92s21.74-8.03,24.01-11.99c.48-.84.84-2.05.35-2.9ZM868.83,556.01c-39.91,5.74-31.19,73.7,5.98,79.46,56.75,8.79,50.87-87.64-5.98-79.46ZM919.08,607.72c8.62-9.51,19.69-25.87-2.01-25.98,2.8,8.58,3.93,17.05,2.01,25.98ZM943.07,726.67c4.04-22.16-13.14-44.22-9.74-71.21.53-4.25,6.94-20.09,6.66-21.17-.49-1.89-7.2-2.18-7.78-5.21-.43-2.23,3.23-3.99,2.86-6.36-3.7-.21-7.59.42-11.26-.24s-4.58-3.07-7.72-3.76c.87,5.04-11.94,13.62-12.09,14.57-.67,4.31,6.59,4.39,6.12,9.91-.28,3.23-4.42,2.38-6.08,3.96-2.01,1.92.86,15.81,1.7,19.35,5.79,24.4,26.01,37,35.33,61.15.44,1.13.2,2.79,1.99,3,.17-1.27-.21-2.8,0-4ZM951.07,631.71c-.66-5.06.57-13.45-6.74-10.23-11.12,4.9-.57,10.38,6.74,10.23ZM895.08,645.7c8.28-.51,13.46-5.58,2.62-7.93-1.97.6-2.77,5.97-2.62,7.93Z"/>
  <path class="cls-6" d="M944.31,416.58c-2.89-2.91-1.01-8.91,3.28-9.73,8.73-1.68,22.08,6.99,26.91,14.03,2.74,3.99,3.99,7.15-1.08,9.8-7.03,3.67-11.25-7.4-16.43-10.29-3.2-1.79-10.73-1.84-12.68-3.81Z"/>
  <path class="cls-8" d="M970.07,520.76c3.06-.82,2.54,2.8,1,5-.02-.26-.78-3.68-1-5Z"/>
  <path class="cls-8" d="M968.07,549.75l1,1c-.34.2-.76,1.73-1.5,1.99-5.16-1.33.34-2.74.5-2.99Z"/>
  <path class="cls-8" d="M967.07,508.77l-1-3c3.07,3.27.85,2.21,1,3Z"/>
  <path class="cls-3" d="M289.07,691.69c-1.38-1.33,3.8-8.23,4.78-9.72,23.98-36.57,68.49-75.56,107.2-95.76,4.68-2.44,18.44-9.76,22.79-10.3,4.49-.56,5.99,3.79,9.31,6.24,39.67,29.36,121.97,13.3,163.59-7.23,4.76-2.35,16.91-11.26,20.76-11.23,7.66.07,27.64,9.27,34.87,13.24,41.89,23.02,87.83,68.28,120.72,103.23,44.28,47.05,92.12,106.8,108.48,170.44,9.86,38.38,15.32,110.12-35.32,120.64-39.42,8.19-86.37,11.02-126.73,12.27-49.87,1.54-101.18-7.83-148.23-24.68-6.31-2.26-39.19-15.28-40.15-20.9,2.53-3.98,6.03-7.14,8.74-11.04,12.52-18.05,22.54-45.57,21.06-67.66-1.05-15.62-9.17-20.39,8.46-30.78,22.06-13.01,43.89-2.01,68.21-2.79,32.42-1.04,67.5-5.03,99.97-8.03,3.83-.35,11.91,1.24,14.06-3.02,1.1-2.17-1.62-5.53-4.03-5.07l-44.54,3.65-45.99-82.06c-3.53-1.75-7.31,1.29-5.06,5.03,13.33,26.18,29.31,51.03,42.06,77.45l-65.47,5.07c-27.69-4.16-49.65-9.93-72.43,10.54-1.2,1.08-4.2,6.67-6.09,5.39-.46-.32-4.54-7.61-6.05-9.46-31.98-39.58-102.4-105.36-156.89-72.91-9.8,5.83-15.56,15.68-26.07,20.41l9.68-78.67c-.19-5.15-5.47-5.94-7.47-1.58l-11.2,83.24c-1.41-7.45-3.3-14.89-5.29-22.2-3.32-12.14-11.28-47.67-18.82-55.15-1.38-1.37-8.93-6.61-10.39-6.61h-28.5Z"/>
  <path class="cls-3" d="M20.8,698.91l292.81-.27c6.8-.11,12.04,5.9,14.19,11.81l58.04,212.87c1.85,10.65-2.84,25.22-15.21,26.3l-292.58-.52c-5.77-2.07-9.45-5.78-11.26-11.74l-58.47-211.43c-1.66-11.37.82-22.68,12.49-27.02ZM195.84,795.9c-36.86,1.07-25.13,71.29,11.54,50.52,21.56-12.22,11-51.17-11.54-50.52Z"/>
  <path class="cls-3" d="M449.07,293.87c-.49,14.59,6.5,28.15,21.95,30.53,10.82,1.66,19.81-3.4,30.05-5.55,1.41,22.91,15.73,31.68,37.55,31.03,3.26-.1,7.05-2.45,9.95-.03,3.09,2.58,7.59,16.28,7.53,20.43-.14,10.2-13.13,33.36-10.84,40.84,1.06,3.45,11.39,6.89,14.82,5.2,6.42-3.17,7.41-22.88,20-26.99,10.96-3.57,21.88-.85,30.51,6.46,30.18,25.55,2.06,73.79-34.89,58.87-3.23-1.3-8.33-6.62-10.7-3.45-6.31,8.46,18.94,11.78,19.89,14.25l22.1,90.91c1.16,4.62-2,5.57-5.26,7.53-25.3,15.28-70.68,26.24-100.12,26.87-23.85.51-48.83-2.68-68.32-17.25l5.61-60.1c-.94-2.72-12.76-4.32-16.36-5.64-20.38-7.5-18.38-24.83-17.52-43.54.25-5.33,3.96-27.66,2.56-30.46l-71.5-27.47c22.7-19.04,40.7-42.64,60.47-64.48,9.67-10.68,33.5-39.84,44.46-45.52,1.22-.63,7.33-3.21,8.05-2.44ZM475.93,349.7c5.17-3.27-5.97-11.03-8.82-12.39-4.48-2.14-18.48-5.86-17.08,2.02.61,3.44,8.05,2.65,12.02,4.04,3.68,1.29,10.63,8.39,13.88,6.33ZM433.73,360.98c-2.05.69-10.09,20.83-9.71,23.32.54,3.52,4.94,3.47,6.95.93.89-1.13,7.3-17.44,7.68-19.33.8-4.01-.38-6.43-4.92-4.91ZM450.73,365.98c-1.82.6-9.46,20.28-8.19,22.84s4.65,2.94,6.44.41c1.18-1.66,6.59-16.91,6.9-19.15.53-3.85-1.45-5.31-5.15-4.1ZM587.83,407.07c-5.41.73-30.59,10.55-25.33,17.79,2.97,4.1,11.16-4.55,14.05-6.08,4.64-2.46,11.81-4.56,17.04-4.96,3.64-.28,11.34,2.35,12.31-2.66,1.21-6.24-14.21-4.61-18.07-4.09ZM459.81,451.04c-2.34-2.39-8.31,1.04-11.5,1.5-3.45.5-9.45,1.34-12.75,1.35-3.84,0-19.48-3.42-21.07-1.16-.97,1.37-.78,4.43.56,5.57,2.97,2.53,22.84,2.84,27.49,2.47,4.08-.32,24.18-2.64,17.26-9.73Z"/>
  <path class="cls-3" d="M387.07,760.67c36.61-24.34,81.27,1.78,110.47,26,12.57,10.42,49.22,47.45,54.58,61.39,6.66,17.34-2.33,47.27-10.88,63.19-1.65,3.08-9.46,15.96-11.61,17.4-2.37,1.59-11.12-.98-14.12-2.02-33.33-11.59-30.01-36.69-50.97-53-18.91-14.72-40.3-5.42-60.89-8.1-4.21-.55-10.22-2.61-10.67-7.4-1.18-12.61,18.81-8.68,26.32-9.77,24.39-3.53,20.27-32.09-5.75-34.71-8.54-.86-24.07.65-31.16-2.84-14.47-7.12-7.48-19.95,5.12-24.21,17.74-6,36.63,4.67,51.3,13.86,7.3-.51,5.92-4.45.98-8.04-15.26-11.11-44.75-21.14-61.66-9.21-2.09,1.47-13.49,14.91-15.1,5.91-1.79-10.02,9.98-15.06,17.5-17.5,19.12-6.21,34.78-6.56,54.05-.98,3.57,1.03,18.91,9.27,17.31.66-.92-4.95-23.57-9.8-28.47-10.5-11.28-1.63-23.01-1.97-33.92,1.83l-2.44-1.95Z"/>
  <path class="cls-3" d="M99.07,956.57h276.5c.53,0,4.47-2.03,5.44-2.56,7.6-4.2,9.71-11.97,12.72-19.47l124.6.29c6.33.23,5.21,7.3,4.64,12.14-2.23,18.88-20.21,34.9-39.34,34.64l-354.04-.06c-12.01-1.19-27.95-12.86-30.51-24.98Z"/>
  <path class="cls-3" d="M394.57,927.58l-14.53-54.51c.04-.49-.17-1.17.06-1.43.32-.37,8.78-2.73,9.26-2.75,3.72-.15,7.94,2.75,11.44,3.48,17.61,3.68,34.55-5.03,52.45,3.34,14.02,6.55,18.45,22.7,26.99,34.21,5.36,7.23,11.92,12.06,18.83,17.66h-104.5Z"/>
  <path class="cls-8" d="M367.08,797.63c.31.29-.07,5.42,1.1,8.4,8.92,22.9,43.01,8.26,55.41,18.59,4.71,3.92,5.43,11.44-.16,14.85-9.62,5.86-24.37-2.62-34.75,8.25-6.26,6.56-2.11,14.24-2.59,14.87-.28.36-8.02,2.58-8.92,1.95l-18.08-67.89c1.56,1.07,7.71.71,8,.99Z"/>
  <path class="cls-1" d="M906.07,102.96c1.16,1.2-4.64,11.56-5.81,13.68-6.76,12.33-15.04,24.02-21.32,36.66-.74,1.65-2.09,1.89-3.82,1.58l-25.05-52.93,56,1Z"/>
  <path class="cls-6" d="M763.07,86.97l-.96,3.54c-13.58,10.78-24.69,28.6-38.04,38.94-1,.78-1.28,1.93-3,1.49l-12.01-58.96,54,14.99Z"/>
  <path class="cls-7" d="M627.06,34c1.15,1.67-3.48,4-4.69,4.78-11.59,7.48-26.41,15.58-38.63,22.36-1.24.68-8.14,4.42-8.67,3.82l5.01-59.96,46.98,29Z"/>
  <path class="cls-7" d="M834.07,99.96c-3.84,9.96-8.2,7.85-17.38,6.86-5.89-.63-30.17-4.22-33.95-6.8-1.22-.83-3.21-7.56-2.67-8.07l54,8Z"/>
  <path class="cls-7" d="M824.07,111.95c1.16,1.13-3.81,10.02-6.26,9.75-7.93-2.82-21.88-1.61-29.02-4.97-2.81-1.32-3.3-6.88-3.71-9.77l38.99,5Z"/>
  <path class="cls-7" d="M815.07,125.95c-2.5,7.46-3.96,8.48-11.49,7.97-8.05-.55-13.33-1.51-12.51-10.98l24,3Z"/>
  <path class="cls-7" d="M806.07,138.94c1.38,1.44-6.43,11.47-8,9.99l-3-10.99,11,1Z"/>
  <path class="cls-6" d="M572.72,180.13c2.27-.2,11.97,7.03,16.53,8.1,3.98.94,9.71.1,12.76,2.23,4.15,2.9,1.81,7.98-2.21,9.69-5.95,2.53-30.44-5.31-31.73-11.77-.67-3.37.6-7.89,4.65-8.25Z"/>
  <path class="cls-9" d="M453.78,175.11c5.31-1.6,6.99,2.65,10.97,4.63,2.39,1.18,6,2.74,8.52,3.48,4.15,1.21,13.21.7,13.83,5.26,1.92,14.1-32.21,1.61-35.51-5.57-1.18-2.56-.95-6.85,2.19-7.79Z"/>
  <path class="cls-9" d="M687.79,182.09c6.23-1.83,7.12,4.02,5.81,8.86-1.74,6.44-18.31,24.03-25.53,20.46-8.15-4.04,8.6-14.9,11.53-18.47,2.18-2.65,5.17-9.96,8.19-10.85Z"/>
  <path class="cls-1" d="M699.79,281.02c2.74-.75,7.1,2.78,7.23,5.31s-3.59,9.09-3.96,13.04c-.56,5.92,5.12,17.58-3.49,17.6-11.4.03-8.11-33.65.22-35.94Z"/>
  <path class="cls-1" d="M575.74,106.11c8.38-2.88,24.83,10.96,27.4,18.33,1.95,5.6-3.62,9.76-8.08,7.01-.67-.41-5.28-8.16-8.48-10.51s-11.26-4.62-12.57-6.42c-1.69-2.32-.99-7.48,1.74-8.41Z"/>
  <path class="cls-6" d="M718.79,414.01c3.98-.89,6.97-.1,7.36,4.29.59,6.6-6.22,8.2-10.06,13.03-3.59,4.53-5.39,14.75-13.03,10.97-8.7-4.3,9.56-26.9,15.73-28.29Z"/>
  <path class="cls-9" d="M229.77,563.91c4.22-1.28,7.55,2.12,7.38,6.31-.28,7.12-20.84,33.7-24.9,19.8-1.51-5.18,5.84-9.02,8.8-12.8,2.33-2.98,6.41-12.61,8.73-13.31Z"/>
  <path class="cls-7" d="M533.77,171.11c10.85-3.36,7.63,14.48,5.49,20.5-1.84,5.19-9.59,17.55-15.27,9.88-3.29-4.45,4.46-10.98,5.61-15.53.99-3.93-.57-13.37,4.17-14.84Z"/>
  <path class="cls-7" d="M320.84,553.51c-3.3,3.29-8.66.67-9.56-3.48-.79-3.67.76-5.76.69-8.67-.11-4.37-6.5-15.57-.19-17.43,8.71-2.57,11.71,15.5,11.33,21.36-.12,1.9-1.09,7.03-2.28,8.22Z"/>
  <path class="cls-9" d="M349.79,463.96c3.2-.96,5.97.76,6.87,3.79,1.15,3.89-3.78,9.5-5.36,13.75-1.38,3.71-.57,9.77-4.94,11.07-14.66,4.34-4.1-26.36,3.43-28.61Z"/>
  <path class="cls-7" d="M387.83,170.68c-10.13,10.1-29.76-31.34-13.47-26.57,3.05.89,8.73,13.57,10.89,17.14,1.56,2.58,6.5,5.52,2.58,9.43Z"/>
  <path class="cls-7" d="M829.8,660.85c6.18-1.64,7.36,6.32,9.83,9.78,2.4,3.35,10.3,7.99,9.04,12.08-4.88,15.79-32.72-18.17-18.87-21.86Z"/>
  <path class="cls-7" d="M749.79,423.99c7.69-2.24,10.45,16.01,10.37,21.33-.11,7.3-8.73,8.48-11.38.27-1.55-4.79-5.14-19.81,1.02-21.6Z"/>
  <path class="cls-9" d="M274.77,356.02c5.31-1.64,9.63,2.47,7.87,7.87-2.13,6.52-19.22,23.37-19.4,6.65,2.88-2.02,9.43-13.87,11.53-14.52Z"/>
  <path class="cls-7" d="M734.78,550.94c1.53-.46,3.02-.37,4.54.04.83.22,14.66,7.14,15.31,7.7,3.86,3.37.34,9.42-4.93,9.04-3.35-.25-14.98-5.46-16.68-8.42-1.58-2.75-1.7-7.32,1.75-8.36Z"/>
  <path class="cls-9" d="M774.8,603.88c4.16-1.11,7.35,2.72,8.04,6.58.31,1.77,1.29,11.29,1.08,12.52-.71,4.13-5.66,5.95-9.24,3.63-3.32-2.15-6.16-21.06.12-22.73Z"/>
  <path class="cls-6" d="M234.81,503.95c6.84-1.4,13.74,6.88,7.82,12.88-10.05,10.19-20.23-10.34-7.82-12.88Z"/>
  <path class="cls-6" d="M298.8,292.07c10.8-2.41,14.64,12.77,3.52,14.62-9.1,1.52-11.61-12.82-3.52-14.62Z"/>
  <path class="cls-6" d="M499.76,95.16c10.14-3.09,15.42,9.1,6.57,13.56-10.52,5.29-13.62-11.41-6.57-13.56Z"/>
  <path class="cls-6" d="M721.8,192.11c11.17-2.45,13.43,12.54,3.54,14.62-9.07,1.91-11.64-12.84-3.54-14.62Z"/>
  <path class="cls-9" d="M906.78,412.03c7.24-1.66,12.87,4.44,8.74,10.74-8.14,12.42-20.72-7.99-8.74-10.74Z"/>
  <path class="cls-6" d="M275.81,432.96c8.23-1.49,14.12,12.25,3.54,14.64-10.54,2.38-12.35-13.05-3.54-14.64Z"/>
  <path class="cls-7" d="M753.81,504.92c8.61-1.59,12.28,12.7,3.54,14.64-10.59,2.35-12.8-12.93-3.54-14.64Z"/>
  <path class="cls-6" d="M288.84,608.91c9.9-1.25,11.08,13.85,1.63,14.8-9.28.94-10.52-13.68-1.63-14.8Z"/>
  <path class="cls-7" d="M651.78,253.09c14.63-4.38,12.64,18.7-.46,13.03-6-2.6-4.86-11.44.46-13.03Z"/>
  <path class="cls-7" d="M877.72,461.09c8.03-.44,10.5,10.96,3.09,13.94-11.76,4.73-13.58-13.36-3.09-13.94Z"/>
  <path class="cls-6" d="M672.81,365.01c9.72-1.98,11.88,11.42,4.56,13.61-12.15,3.62-13.32-11.82-4.56-13.61Z"/>
  <path class="cls-7" d="M399.8,239.07c7.76-1.62,12,9.84,4.63,13.68-10.23,5.32-14.79-11.56-4.63-13.68Z"/>
  <path class="cls-6" d="M441.79,138.23c7.25,5.92-.06,15.68-7.71,12.19-8.81-4.03-.46-18.85,7.71-12.19Z"/>
  <path class="cls-7" d="M233.77,419c10.77-3.29,14.28,10.65,5.34,13.39s-12.13-11.31-5.34-13.39Z"/>
  <path class="cls-9" d="M704.78,351.05c12.76-3.83,12.63,17.22.25,13.35-6.16-1.93-6.06-11.61-.25-13.35Z"/>
  <path class="cls-6" d="M331.81,265.04c8.52-1.54,10.98,11.69,4.57,13.64-12.15,3.69-13.31-12.06-4.57-13.64Z"/>
  <path class="cls-1" d="M821.79,488.5c-7,7.01-17.91-5.65-9.29-10.78,7.59-4.51,15.09,4.97,9.29,10.78Z"/>
  <path class="cls-1" d="M518.78,136.14c9.2-2.76,13.3,11.85,3.55,13.64-8.61,1.58-10.98-11.41-3.55-13.64Z"/>
  <path class="cls-9" d="M271.77,485.97c12.5-3.82,14.38,15.64,1.02,12.59-6.37-1.45-5.81-11.12-1.02-12.59Z"/>
  <path class="cls-9" d="M420.81,201.08c9.06-1.87,12.6,10.2,4.56,12.61-10.72,3.21-12.34-11-4.56-12.61Z"/>
  <path class="cls-6" d="M819.78,535.96c8.27-2.48,12.86,9.47,6.27,12.27-10.09,4.29-14.56-9.77-6.27-12.27Z"/>
  <path class="cls-7" d="M479.81,141.11c11.39-2.35,10.86,16.24-.8,12.38-5.67-1.88-5.15-11.15.8-12.38Z"/>
  <path class="cls-6" d="M642.79,153.13c7.93-2.36,12.69,8.95,6.05,12.05-10.27,4.79-13.13-9.94-6.05-12.05Z"/>
  <path class="cls-6" d="M814.79,620.92c12.27-3.6,11.32,15.84.23,12.36-5.85-1.84-5.18-10.9-.23-12.36Z"/>
  <path class="cls-7" d="M449.8,89.14c8.41-1.77,11.65,10.93,3.53,12.63-8.41,1.77-11.65-10.93-3.53-12.63Z"/>
  <path class="cls-6" d="M697.78,527.98c9.85-2.9,12.04,10.23,4.31,12.38-8.51,2.37-10.99-10.41-4.31-12.38Z"/>
  <path class="cls-9" d="M284.79,564.9c6.88-1.08,10.75,11.49,2.72,12.85-10.13,1.72-11.12-11.53-2.72-12.85Z"/>
  <path class="cls-6" d="M394.78,95.16c9.13-2.73,11.32,10.98,3.55,12.62-8.44,1.78-10.78-10.45-3.55-12.62Z"/>
  <path class="cls-7" d="M359.76,317.05c9.95-3.05,12.7,10.09,4.35,12.38-7.32,2-11.12-10.3-4.35-12.38Z"/>
  <path class="cls-9" d="M378.81,280.05c9.64-1.97,10.9,11.35,2.54,12.66-6.75,1.06-10.72-10.99-2.54-12.66Z"/>
  <path class="cls-7" d="M312.81,443.96c10.81-2.07,9.19,17.13-1.51,12.09-5-2.35-4.07-11.03,1.51-12.09Z"/>
  <path class="cls-6" d="M369.31,528c4.25-4.24,14.35.83,9.82,8.32s-15.8-2.35-9.82-8.32Z"/>
  <path class="cls-1" d="M784.82,408.98c7.67-1.38,11,9.66,4.56,11.64-10.32,3.18-11.83-10.33-4.56-11.64Z"/>
  <path class="cls-1" d="M626.79,204.09c7.26-2.11,11.2,9.58,4.59,11.62-10.42,3.21-10.52-9.89-4.59-11.62Z"/>
  <path class="cls-1" d="M325.78,351.03c9.9-2.98,12.04,13.26,1.85,11.83-5.42-.76-6.47-10.44-1.85-11.83Z"/>
  <path class="cls-4" d="M172.07,537.76c-1,1.33-.76,6.73-1.01,6.99-.52.55-14.82,1.1-13.99-2.99,2.25-.69,4.79-1.32,7-2,1.67,3.23,4.94,3.06,4-1,1.54-.48,2.94-.67,4-1Z"/>
  <path class="cls-6" d="M278.07,152.94c2.3-2.04,21.75,5.32,24.93,7.55,3.36,2.36,9.71,8.85,6.07,12.94-35.66,15.09-71.66,30.08-109,40.46l17.96-23.52c3.83-.78,2.78,2.28,8.55,1.55,11.93-1.51,3.9-10.64,4.65-14.26.3-1.46,7.33-9.5,8.36-9.73,4.56-1.02,2.2,16.1,11.72,14.77,16.61-2.31-3.79-24.21,1.74-28.29,1.47-1.08,8.32-2.04,10.03-1,4.05,2.46,2.57,18.14,10.47,18.6,15.97.94,3.29-17.99,4.52-19.07Z"/>
  <path class="cls-8" d="M187.07,275.86c-2.25-3.26,14.26-16.55,17.68-16.85,4.12-.37,2.69,10.89,7.54,9.69,15.28-3.99,30.38-8.64,45.3-13.8,9.27-3.21,69.54-26,72-31,1.83-3.72-1.7-7.22-1.52-10.99,37.72-5.34,23.82,8.77,3.31,20.79-27.55,16.15-106.16,47.37-136.7,44.07-2.57-.28-5.05-1.54-7.6-1.9Z"/>
  <path class="cls-6" d="M311.98,179.01c.6.42,2.85,9.76,3.78,11.42-.09.89-1.03,1.43-1.75,1.89-4.85,3.12-16.98,7.57-22.95,10.06-22.95,9.6-60.23,24.99-83.72,30.26-1.38.31-4.48.9-5.37-.36-.38-.53-4.32-11.9-3.89-12.39,30.52-7.82,60.74-19.66,89.97-31.53,3.5-1.42,22.31-10.52,23.94-9.37Z"/>
  <path class="cls-6" d="M322.06,210.9c-.33,2.51,3.02,9.1,1.89,10.87-.37.59-10.69,5.1-12.52,5.98-30.49,14.54-63.88,24.96-96.11,34.96-3.55,1.89-5.68-11.26-5.22-11.79,29.47-8.08,58.64-18.04,86.94-29.56,3.28-1.34,24-11.36,25.02-10.47Z"/>
  <path class="cls-7" d="M318.03,196.95c4.36,11.03-.38,10.34-9.27,14.15-29.38,12.56-60.23,24.08-90.92,33.06-8.06,2.36-12.32,5.42-12.68-6.17l112.87-41.04Z"/>
  <path class="cls-7" d="M238.58,141.94c1.75-.51,2.42.4,3.36,1.62,1.49,1.94,9.76,24.82,10.64,28.35,1.61,6.44-1.46,8.56-4.7,1.7-.88-3.53-9.15-26.41-10.64-28.35-.94-1.22-1.61-2.12-3.36-1.62Z"/>
  <path class="cls-1" d="M266.99,134.02c.26,4.45,11.58,31.49,10.07,32.89-.34.32-3.88.2-4.51-.98l-10.34-29.7c-.16-2.54,3.02-2.64,4.77-2.21Z"/>
  <path class="cls-1" d="M217.01,154.98c1.41.91,8.69,25.27,10.87,28.68.9,4.68-2.62,5.79-4.58,1.53-1.5-8.43-9.1-18.94-10.07-27.01-.32-2.64,1.97-4.36,3.78-3.2Z"/>
  <path class="cls-6" d="M199.04,522.72c-5.33.47-34.42,12.43-37,10.62-1.84-6.39-18.07-52.21-16.48-54.58,3.1-4.63,5.3,7.16,6.01,8.02,5.47,6.65,7.04-8.44,7.61-8.9s8.92-.27,10.92-1.58c2.33-1.52-.78-5.4,0-6.48.37-.5,10.51-3.66,12.02-2.61,2.39,1.65,14.29,49.02,16.93,55.5Z"/>
  <path class="cls-6" d="M144.07,539.74c-5.49.41-35.35,12.66-37.89,10.89-.86-6.84-17.58-53.31-15.99-55.74.34-.51,11.21-3.83,11.87-3.12.24.25-.39,5.42,2.64,5.91,2.85-.32,5.44-4.68,7.9-4.94,4.79-.51,6.9,6.86,12.46,5.03,1.54-1.49-3.15-14.03,1.49-12.99,2.82.63,14.26,48.77,17.51,54.96Z"/>
  <path class="cls-7" d="M148.1,537.73l-22.8-76.68c-2.02-7.56,6.35-10.23,8.54-2.53l23.06,75.97c.54,2.67-8.33,3.65-8.8,3.25Z"/>
  <path class="cls-6" d="M111.07,458.8c-1.67,5.29-4.73,9.79-6.29,15.19-.82,2.85-1.09,10.16-2.19,11.8-.71,1.06-23.39,7.64-24.43,6.91-.4-3.79-6.48-19.45-4.96-21.79l37.87-12.11Z"/>
  <path class="cls-6" d="M183.04,436.8l5.99,21.93c-4.27.41-20.49,7.61-23.26,6.91s-14.62-15.78-20.7-15.86c.59-1.92,2.83-2.4,4.45-3.03,10.43-4.09,22.8-6.32,33.52-9.95Z"/>
  <path class="cls-7" d="M91.57,452.8c-10.43-1.4-22.92-10.43-19.22-22.19,3.33-10.6,15.28-10.5,24.11-6.68,1.92.83,13.08,8.16,13.6,9.4.73,1.75-.63,1.74-2.08,1.07-3.46-1.59-6.08-4.17-10.39-4.62-16.76-1.73-15.71,16.24-3.73,19.73l18.21,3.3c-6.45-.61-14.25.84-20.5,0Z"/>
  <path class="cls-7" d="M148.07,437.8c3.23-5.54,12.69-15.1,5.95-21.44-5.62-5.28-11.96-2.42-16.46,2.44-1.38,1.49-4.19,6.72-4.51,7-.83.72-2.23.37-1.98-1.47.72-5.3,9.89-18.58,14.65-21.36,10.46-6.14,21.99,3.11,20.29,14.28-1.44,9.47-10.3,15.2-16.94,20.56h-1Z"/>
  <path class="cls-7" d="M120.06,456.8c-1.32,10.9-1.66,22.09,0,32.98-2.58.32-3.02-2.77-5.53-3.02-3.31-.33-4.57,2.92-7.46,3.02-1-1.11,2.4-15.77,3.21-18.27.45-1.37,7.14-17.67,9.78-14.71Z"/>
  <path class="cls-7" d="M163.07,472.78c-7.08-.82-7,0-9.49,6l-7.08-12.91-11.42-15.07c2.27-1.93,14.18,6.29,16.48,8.01,2.04,1.53,14.21,11.41,11.52,13.97Z"/>
  <path class="cls-8" d="M135.43,430.15c.17-.38,4.03-6.08,4.64-6.84,8.55-10.6,15.19-4.49,8.83,5.83-1.25,2.03-11.82,11.4-13.49,11.54-4.13.36-.95-8.41.01-10.53Z"/>
  <path class="cls-8" d="M114.07,446.79c-6.05.13-13.4.06-19.01-2.48-9.66-4.37-4.94-13.63,6.01-9,1.6.68,15.06,9.71,13,11.48Z"/>
  <path class="cls-7" d="M132.07,448.78c-3.53.19-9.48,4.96-12.08,1.61-4.97-6.39,12.76-12.61,12.08-1.61Z"/>
  <path class="cls-1" d="M148.07,437.8h1c-.08.07.26,1.28-.68,2.04-1.43,1.15-7.39,4.8-8.31,1.97,3.39-.45,4.33-4.66,7.99-4.01Z"/>
  <path class="cls-1" d="M132.07,426.81c.08,2.96-.95,5.9-1.89,8.64-.53,1.53.9,2.87-2.1,2.34.33-2.88,1.02-5.89,1.87-8.66.5-1.62-.81-2.82,2.12-2.33Z"/>
  <path class="cls-8" d="M168.07,538.76c.94,4.06-2.33,4.23-4,1,1.55-.48,2.92-.66,4-1Z"/>
  <path class="cls-8" d="M158.57,437.8c.65.33.65.67,0,1v-1Z"/>
  <path class="cls-8" d="M397.83,59.73c-4.64,4.63-14.02-2.73-7.72-8.21s11.93,4,7.72,8.21Z"/>
  <path class="cls-6" d="M230.57,118.97c1.48.03,9.19,9.17,3.88,10.9-6.94,2.26-6.33-10.95-3.88-10.9Z"/>
  <path class="cls-6" d="M256.59,110.95c4.96,1.68,7.79,7.85,3.95,11.98-4.53,1.36-7.77-9.28-3.95-11.98Z"/>
  <path class="cls-6" d="M205.59,131.94c2.53-.53,9.82,9.3,4.86,10.91-6.44,2.1-8.35-10.19-4.86-10.91Z"/>
  <path class="cls-7" d="M818.72,279.23c19.4,18.53,19.62,54.83-1.64,72.13-34.7,28.24-79.23-22.4-61.55-60.53,11.92-25.7,42.81-31.07,63.19-11.6ZM763.07,320.85c.62-.62-1.45-13.53-.91-17.4.43-3.05,8.29-14.72-.49-12.65-4.07.96-6.01,24.98-3.14,29.09.79,1.14,4.19,1.31,4.53.96ZM762.22,329.71c1.02,1.62,7.21,2.1,5.69-3.16-1.65-5.72-8.46-1.22-5.69,3.16Z"/>
  <path class="cls-6" d="M818.83,200.17c27.54-3.73,46.43,22.12,47.29,47.28.18,5.16-8.64,10.73-12.03,14.95-3,3.74-6.84,10.03-8.5,14.49-2.41,6.47-.77,13.9-9.28,14.81-3.78.41-7.63-9.07-10.26-12.31-7.36-9.09-20.63-16.9-32.45-17.56-7.31-.41-9.64,3.99-11.28-6.69-3.78-24.58,10.52-51.46,36.52-54.98ZM792.98,248.79c1.25-.83,1.1-12.11,2.04-15.44,1.38-4.86,7.49-10.42,7.94-12.14.41-1.56-1.19-4.01-2.52-4.24-5.7-.97-15.75,25.55-11.93,30.98.74,1.05,3.62,1.41,4.47.84Z"/>
  <path class="cls-9" d="M886.85,248.17c39.32-4.72,55.71,39.77,37.41,70.38-22.14,37.04-72.79,29.38-77.07-15.31-2.31-24.1,14.41-52.05,39.66-55.07ZM901.11,261.86c-.53-.37-.53-4.43-5.04-2.98v4.01c-11.29-2.65-2.84,3.69-2.99,5.49-2.46-.56-4.45,3.01-3.02,4.5.58.61,4.63-1.39,4,1.49l-36.04,35.05c-.37,3.93,12.56,11.14,16.03,12.96,3.89,2.03,23.01,10.35,25.58,6.53,2.27-16.8,2.48-34.02,2.45-51.02l5.99,2.99c-1.57-8.89,3.01-5,4.01-6,2.05-2.05-2.92-4.13-3.01-4.5-.55-2.28,1.78-1.39,2.51-2.45,3.22-4.68-3.83-2.43-4.5-3.04-.16-1.41,2.01-5.46-.52-5.99-1.91-.4-3.71,4.17-5.45,2.97Z"/>
  <path class="cls-8" d="M842.07,295.86c-.41,12.81,3.67,28.34,12.48,38.01,1.75,1.92,10.18,7.67,10.46,8.6,1.08,3.54-11.51,9.87-4.88,13.81,1.56.93,6.52,1.28,6.84,1.65.7.82-.3,18.12,1.17,21.41-.49,26.96-19.73,46.63-34.06,67.46,1.25-28.13,11.42-56.67,5.49-84.96-1.19-5.67-6.78-17.85-6.46-22.43.22-3.22,4.13-10.61,4.7-15.3s-.06-9.13.3-13.69c.11-1.42,1.75-2.41,1.74-3.86-.02-3.11-4.49-6.18-3.76-9.64l5.97-1.04Z"/>
  <path class="cls-8" d="M830.06,346.85c12.56,32.06,2.1,66.26-1.5,98.96-2.43-.05-2.22-1.81-2.51-3.49-2.31-13.23.53-26.6-3.27-39.72-2.86-9.88-9.67-16.65-12.78-26.18.25-1.51,8.18-1.79,8.99-4.23,1.78-5.35-7.89-8.7-5.48-12.39.48-.73,6.29-3.55,8.03-4.99,1.86-1.55,7-9.06,8.52-7.97Z"/>
  <path class="cls-9" d="M876.06,355.83c-2.04-.44-12.89-.98-11.99-4.48.1-.38,5.66-4.84,6.01-5,5.81-2.76,6.22,5.41,5.98,9.49Z"/>
  <path class="cls-7" d="M812.07,370.82l-11,2c.16-2.28,1.38-9.28,3.62-9.93,2.65-.77,8.8,6.27,7.37,7.93Z"/>
  <path class="cls-7" d="M957.69,558.38c-.17.3-1.21.45-1.61,1.07-1.34,2.06-.84,5.94-4.52,6.29-5.8.55-30.39-13.58-30.53.52-.04,3.94,2.17,7.28,3.06,10.96-11.23,2.55-12.24-8.57-18.99-15-2.17-2.06-6.68-5.17-9.36-6.64-2.94-1.62-9.02-3.17-10.63-4.37-1.72-1.29-4.45-10.76-4.78-13.21-4.49-33.12,20.64-58.8,53.95-50.93,31.21,7.38,37.75,46.23,23.41,71.31ZM953.16,542.85c-.18,4.52-5,9.17-5.7,12.85-.74,3.86,2.3,3.55,4.68,1.61,3.35-2.74,10.37-16.31,1.02-14.46Z"/>
  <path class="cls-1" d="M868.83,556.01c56.85-8.18,62.73,88.26,5.98,79.46-37.17-5.76-45.89-73.72-5.98-79.46ZM849.67,577.83c-4.94,1.49-5.86,28.66,2.79,30.84,5.18-3.49-1.13-10.17-1.39-16.48-.16-3.75,4.62-16.18-1.4-14.36Z"/>
  <path class="cls-6" d="M1003.94,595.85c.49.85.14,2.06-.35,2.9-2.27,3.96-20.9,7.73-24.01,11.99s-4.36,24.89-8.16,25.92c-4.01,1.09-5.78-4.67-7.34-6.45-2.22-2.53-11.63-13.66-13.72-14.28-1.95-.58-4.7-.28-6.79-.19-3.48.14-20.4,3.98-21.46.38-1.09-3.73,12.25-18.71,12.94-23.97.91-6.91-8.9-18.94-8.03-24.87.16-1.1.5-2.11,1.67-2.45,3.56-1.03,19.43,7.11,25.83,5.92,4.57-.85,18.5-17.7,22.02-17,1.4.28,2.23,6.21,2.39,7.63.51,4.48.18,17.12,1.64,20.35,1.99,4.4,22.08,11.92,23.36,14.13Z"/>
  <path class="cls-8" d="M941.07,727.67c-9.32-24.15-29.53-36.74-35.33-61.15-.84-3.54-3.71-17.43-1.7-19.35,1.66-1.59,5.8-.73,6.08-3.96.47-5.52-6.79-5.61-6.12-9.91.15-.95,12.96-9.53,12.09-14.57,3.14.68,4.09,3.1,7.72,3.76s7.56.03,11.26.24c.38,2.36-3.28,4.12-2.86,6.36.58,3.03,7.29,3.33,7.78,5.21.28,1.07-6.12,16.92-6.66,21.17-3.4,26.99,13.78,49.05,9.74,71.21l-2,1Z"/>
  <path class="cls-8" d="M919.08,607.72c1.92-8.93.8-17.4-2.01-25.98,21.69.11,10.63,16.47,2.01,25.98Z"/>
  <path class="cls-6" d="M951.07,631.71c-7.3.15-17.86-5.34-6.74-10.23,7.31-3.22,6.08,5.18,6.74,10.23Z"/>
  <path class="cls-1" d="M895.08,645.7c-.16-1.96.65-7.33,2.62-7.93,10.84,2.35,5.66,7.42-2.62,7.93Z"/>
  <path class="cls-1" d="M943.07,726.67c-.22,1.19.16,2.72,0,4-1.79-.21-1.55-1.86-1.99-3l2-1Z"/>
  <path class="cls-5" d="M195.84,795.9c22.53-.65,33.1,38.3,11.54,50.52-36.66,20.77-48.4-49.45-11.54-50.52ZM192.8,803.87c-17.96,3.69-15.75,40.61,4.65,38.7,21.72-2.03,17.15-43.18-4.65-38.7Z"/>
  <path class="cls-5" d="M459.81,451.04c6.92,7.09-13.18,9.41-17.26,9.73-4.65.37-24.52.06-27.49-2.47-1.34-1.14-1.53-4.2-.56-5.57,1.59-2.26,17.22,1.16,21.07,1.16,3.3,0,9.29-.85,12.75-1.35,3.19-.46,9.16-3.89,11.5-1.5Z"/>
  <path class="cls-5" d="M587.83,407.07c3.86-.52,19.28-2.15,18.07,4.09-.97,5.01-8.68,2.39-12.31,2.66-5.23.4-12.4,2.49-17.04,4.96-2.89,1.53-11.08,10.18-14.05,6.08-5.25-7.24,19.93-17.06,25.33-17.79Z"/>
  <path class="cls-5" d="M475.93,349.7c-3.25,2.06-10.21-5.05-13.88-6.33-3.97-1.39-11.41-.6-12.02-4.04-1.4-7.88,12.6-4.16,17.08-2.02,2.85,1.36,13.99,9.12,8.82,12.39Z"/>
  <path class="cls-5" d="M433.73,360.98c4.54-1.52,5.73.9,4.92,4.91-.38,1.9-6.79,18.21-7.68,19.33-2.01,2.54-6.41,2.6-6.95-.93-.38-2.48,7.66-22.63,9.71-23.32Z"/>
  <path class="cls-5" d="M450.73,365.98c3.7-1.21,5.68.25,5.15,4.1-.31,2.24-5.72,17.49-6.9,19.15-1.79,2.52-5.22,2.05-6.44-.41s6.37-22.24,8.19-22.84Z"/>
  <path class="cls-5" d="M763.07,320.85c-.35.35-3.74.18-4.53-.96-2.87-4.11-.93-28.12,3.14-29.09,8.77-2.07.91,9.6.49,12.65-.54,3.87,1.52,16.78.91,17.4Z"/>
  <path class="cls-5" d="M762.22,329.71c-2.77-4.37,4.04-8.87,5.69-3.16,1.52,5.25-4.67,4.77-5.69,3.16Z"/>
  <path class="cls-5" d="M792.98,248.79c-.85.56-3.73.2-4.47-.84-3.82-5.43,6.23-31.95,11.93-30.98,1.34.23,2.93,2.68,2.52,4.24-.46,1.72-6.56,7.28-7.94,12.14-.95,3.34-.8,14.61-2.04,15.44Z"/>
  <path class="cls-5" d="M901.11,261.86c1.74,1.2,3.53-3.37,5.45-2.97,2.53.53.36,4.58.52,5.99.67.61,7.71-1.64,4.5,3.04-.73,1.06-3.06.17-2.51,2.45.09.38,5.06,2.46,3.01,4.5-1,1-5.58-2.9-4.01,6l-5.99-2.99c.04,17.01-.18,34.23-2.45,51.02-2.56,3.82-21.69-4.5-25.58-6.53-3.47-1.82-16.41-9.03-16.03-12.96l36.04-35.05c.63-2.88-3.42-.88-4-1.49-1.43-1.5.56-5.07,3.02-4.5.15-1.8-8.3-8.14,2.98-5.49v-4.01c4.51-1.45,4.51,2.61,5.05,2.98ZM898.07,278.88c-3.36-.56-4.87,2.61-6.97,4.49,4.57,3.87,8.12.86,6.97-4.49ZM881.07,294.87h14.5c.34,0,2.13-1.99,2.34-2.7,2.27-7.69-16.52-5.26-16.84,2.7ZM872.57,304.86c3.49.99,18.05,0,23,0,1.64,0,2.6-6.24-.08-6.88-.58-.14-9.56.91-11.96.93-5.65.04-8.21-2.33-13.44,3.45.74.51,1.92,2.34,2.48,2.5ZM896.08,308.85c-5.8-.2-11.69.3-17.49-.01-2.33-.13-16.12-4.32-14.51,1.5.07.25,3.46,3.42,3.71,3.48,3.27.79,15.29,2.08,18.74,2.07,1.09,0,9.21-.7,9.55-1.03.3-.29-.2-4.77,0-6.01ZM879.57,318.86v1c.65-.33.65-.67,0-1ZM896.07,319.86c-.52-.54-12.77.4-15,0,1.9,2.04,10.16,5,12.59,4.95,2.68-.06,3.04-4.3,2.41-4.95Z"/>
  <path class="cls-5" d="M953.16,542.85c9.35-1.85,2.33,11.72-1.02,14.46-2.37,1.94-5.41,2.25-4.68-1.61s5.52-8.33,5.7-12.85Z"/>
  <path class="cls-5" d="M849.67,577.83c6.02-1.82,1.24,10.62,1.4,14.36.27,6.31,6.57,12.99,1.39,16.48-8.65-2.18-7.73-29.35-2.79-30.84Z"/>
  <path class="cls-8" d="M192.8,803.87c21.8-4.48,26.37,36.67,4.65,38.7-20.4,1.91-22.61-35.01-4.65-38.7Z"/>
  <path class="cls-6" d="M896.08,308.85c-.2,1.23.3,5.72,0,6.01-.34.34-8.46,1.03-9.55,1.03-3.44.02-15.46-1.27-18.74-2.07-.25-.06-3.64-3.24-3.71-3.48-1.61-5.82,12.18-1.63,14.51-1.5,5.8.31,11.69-.19,17.49.01Z"/>
  <path class="cls-6" d="M872.57,304.86c-.56-.16-1.74-1.99-2.48-2.5,5.23-5.79,7.79-3.41,13.44-3.45,2.41-.02,11.38-1.07,11.96-.93,2.68.64,1.72,6.88.08,6.88-4.95,0-19.51.99-23,0Z"/>
  <path class="cls-6" d="M881.07,294.87c.31-7.96,19.1-10.39,16.84-2.7-.21.71-2,2.7-2.34,2.7h-14.5Z"/>
  <path class="cls-6" d="M896.07,319.86c.63.65.27,4.9-2.41,4.95-2.43.05-10.69-2.92-12.59-4.95,2.23.4,14.48-.54,15,0Z"/>
  <path class="cls-1" d="M898.07,278.88c1.14,5.35-2.41,8.36-6.97,4.49,2.11-1.88,3.62-5.05,6.97-4.49Z"/>
  <path class="cls-6" d="M879.57,318.86c.65.33.65.67,0,1v-1Z"/>
  <path class="cls-1" d="M158.57,437.8c.65.33.65.67,0,1v-1Z"/>
</svg>
